<?xml version="1.0" standalone="no"?>
<!DOCTYPE svg PUBLIC "-//W3C//DTD SVG 20010904//EN"
 "http://www.w3.org/TR/2001/REC-SVG-20010904/DTD/svg10.dtd">
<svg version="1.0" xmlns="http://www.w3.org/2000/svg"
 width="700.000000pt" height="700.000000pt" viewBox="0 0 700.000000 700.000000"
 preserveAspectRatio="xMidYMid meet">
<metadata>
Created by potrace 1.14, written by Peter Selinger 2001-2017
</metadata>
<g transform="translate(0.000000,700.000000) scale(0.100000,-0.100000)"
fill="#000000" stroke="none">
<path d="M5149 6986 c-3 -3 -35 -6 -72 -7 -37 -1 -67 -5 -67 -8 0 -3 -17 -7
-37 -7 -48 -2 -119 -12 -181 -25 -49 -10 -98 -19 -120 -21 -7 -1 -10 -8 -7
-16 4 -11 2 -12 -8 -4 -14 12 -50 8 -94 -10 -16 -6 -32 -10 -37 -9 -18 4 -46
-11 -40 -22 5 -9 4 -9 -5 -1 -13 12 -61 7 -61 -7 0 -15 38 -48 46 -41 4 4 0
-5 -9 -20 -16 -25 -15 -27 6 -42 12 -8 17 -15 11 -15 -18 -1 -47 36 -35 44 16
9 13 19 -14 49 -20 22 -28 25 -44 17 -12 -7 -17 -18 -14 -30 4 -15 -1 -18 -22
-18 -15 0 -34 -8 -43 -18 -16 -15 -16 -16 2 -13 10 2 21 -3 24 -11 3 -10 0
-12 -13 -7 -10 3 -24 1 -32 -5 -11 -10 -11 -15 4 -33 12 -13 13 -17 3 -10 -8
6 -43 10 -78 9 -41 -1 -59 2 -52 9 13 13 13 29 1 21 -5 -3 -12 -1 -16 5 -3 5
-11 10 -17 10 -7 0 -7 -5 1 -14 6 -7 9 -21 5 -30 -5 -12 -10 -13 -25 -5 -10 5
-19 15 -18 22 0 9 2 9 6 0 5 -15 33 -18 33 -4 0 11 -30 19 -48 14 -6 -3 -10
-8 -7 -13 3 -4 -2 -11 -11 -14 -9 -4 -13 -2 -8 5 4 7 -3 6 -17 -2 -18 -9 -135
-13 -489 -14 -297 -1 -474 -6 -490 -12 -14 -6 -38 -23 -53 -37 -56 -52 -57
-59 -57 -501 l0 -405 -682 0 c-734 0 -712 1 -752 -53 -20 -27 -21 -36 -21
-702 0 -371 -3 -675 -7 -675 -5 0 -8 5 -8 12 0 6 -3 8 -6 5 -4 -4 -1 -13 5
-21 8 -10 13 -77 14 -215 2 -171 0 -201 -13 -205 -13 -3 -13 -4 0 -5 13 -1 15
-22 13 -134 -1 -72 -2 -136 -3 -142 -1 -5 -1 -14 0 -20 5 -19 1 -178 -5 -184
-9 -9 -215 -7 -215 2 0 5 -6 5 -12 1 -18 -11 -48 -12 -48 -2 0 5 -6 6 -13 1
-16 -10 -78 -10 -101 0 -10 5 -16 5 -13 0 3 -5 -8 -15 -24 -22 -51 -22 -71
-62 -75 -152 -2 -44 -6 -84 -9 -90 -4 -5 -2 -9 2 -9 10 0 9 -102 -1 -118 -4
-7 -4 -12 1 -12 4 0 7 -35 5 -77 -3 -96 -3 -69 0 -261 2 -89 -1 -162 -5 -162
-5 0 -5 -5 -1 -12 6 -10 9 -76 4 -95 -1 -5 -1 -12 0 -18 3 -12 2 -86 0 -100
-1 -5 -1 -14 0 -20 6 -28 4 -175 -2 -175 -4 0 -5 -7 -2 -15 9 -22 10 -105 2
-105 -4 0 -5 -7 -2 -15 9 -23 10 -125 1 -125 -5 0 -5 -5 -2 -11 10 -15 11
-109 2 -109 -5 0 -5 -5 -2 -11 10 -15 11 -109 2 -109 -5 0 -5 -5 -2 -11 10
-15 11 -109 2 -109 -5 0 -5 -5 -2 -11 10 -15 11 -109 2 -109 -4 0 -3 -9 3 -19
5 -11 7 -22 3 -24 -5 -3 -6 -100 -3 -217 3 -117 2 -214 -3 -217 -4 -2 -3 -13
3 -23 6 -11 6 -21 1 -25 -6 -3 -6 -17 -1 -35 5 -17 5 -32 0 -35 -10 -6 17
-103 33 -120 43 -42 60 -46 238 -47 113 0 179 -4 188 -12 11 -8 13 -8 7 2 -12
19 153 13 179 -7 18 -15 19 -15 6 2 -12 15 -10 17 18 17 23 0 30 -4 25 -12 -6
-10 -4 -10 7 -1 21 20 38 16 34 -8 -3 -12 -1 -18 3 -15 4 4 7 13 7 19 0 16 95
18 114 3 11 -8 13 -8 8 0 -5 8 44 11 178 11 144 -1 185 -4 185 -14 0 -7 4 -13
10 -13 5 0 7 6 4 13 -6 15 72 18 95 3 9 -6 12 -5 8 1 -4 6 42 9 121 8 100 0
134 -4 159 -18 17 -9 38 -14 46 -11 7 2 20 -3 28 -12 12 -15 12 -16 -8 -10
-12 4 -24 2 -28 -3 -4 -7 1 -8 12 -4 16 6 16 5 4 -10 -9 -11 -10 -17 -2 -17 6
0 11 4 11 9 0 5 9 12 19 16 19 6 19 7 -2 29 -12 12 -26 19 -31 14 -15 -12 -28
-10 -20 4 4 7 3 8 -4 4 -7 -4 -18 -3 -26 1 -8 4 693 9 1557 11 1758 4 1619 -2
1657 77 20 42 20 48 20 1365 l-1 1323 28 31 c15 17 36 36 46 44 9 7 14 18 11
24 -4 7 -2 8 4 4 11 -6 38 31 34 46 -1 5 2 7 7 5 5 -1 25 14 44 34 27 28 33
39 24 48 -9 9 -8 11 3 6 16 -6 53 29 155 149 28 33 65 75 83 95 117 130 335
431 435 601 144 247 247 542 274 785 22 198 3 474 -44 645 -61 224 -197 482
-323 612 -25 26 -45 48 -44 48 4 0 -109 105 -144 133 -19 15 -39 24 -44 21 -6
-4 -8 -2 -5 3 11 18 -205 149 -226 137 -6 -4 -9 -3 -4 1 11 13 -184 95 -260
109 -10 2 -36 9 -58 14 -22 6 -53 13 -69 16 -16 3 -31 8 -34 10 -3 3 -12 0
-20 -7 -10 -7 -13 -8 -9 -1 4 7 -3 14 -18 16 -16 4 -25 0 -28 -11 -4 -14 -5
-14 -6 1 -1 13 -10 16 -41 15 -22 -2 -40 1 -40 6 0 5 -7 4 -15 -3 -8 -7 -15
-8 -15 -3 0 13 -42 14 -59 0 -12 -9 -13 -9 -7 1 6 10 -25 12 -148 11 -117 0
-155 -3 -149 -12 5 -8 2 -8 -9 0 -8 7 -17 11 -19 9z m71 -21 c-7 -8 -17 -15
-23 -15 -6 0 -2 7 9 15 25 19 30 19 14 0z m-170 -4 c0 -6 -4 -12 -8 -15 -5 -3
-9 1 -9 9 0 8 4 15 9 15 4 0 8 -4 8 -9z m54 1 c3 -5 -1 -9 -9 -9 -8 0 -12 4
-9 9 3 4 7 8 9 8 2 0 6 -4 9 -8z m56 3 c0 -2 -6 -8 -13 -14 -10 -8 -14 -7 -14
2 0 8 6 14 14 14 7 0 13 -1 13 -2z m87 -13 c0 -10 -6 -19 -13 -19 -9 0 -9 5
-1 19 7 10 13 18 14 18 1 0 1 -8 0 -18z m-274 -6 c4 -10 1 -13 -8 -9 -8 3 -12
9 -9 14 7 12 11 11 17 -5z m-86 -3 c-4 -3 0 -15 10 -25 20 -22 11 -24 -11 -2
-15 14 -14 34 1 34 4 0 3 -3 0 -7z m202 -27 c-3 -3 -11 5 -18 17 -13 21 -12
21 5 5 10 -10 16 -20 13 -22z m496 24 c3 -5 1 -10 -4 -10 -6 0 -11 5 -11 10 0
6 2 10 4 10 3 0 8 -4 11 -10z m-733 -14 c7 4 8 2 4 -4 -11 -18 -26 -14 -25 6
0 10 3 12 6 4 2 -6 10 -9 15 -6z m152 -16 c-6 -6 -10 -3 -10 10 0 13 4 16 10
10 7 -7 7 -13 0 -20z m103 8 c-3 -8 -6 -5 -6 6 -1 11 2 17 5 13 3 -3 4 -12 1
-19z m79 -4 c1 -9 0 -13 -4 -10 -3 4 -7 14 -8 22 -1 9 0 13 4 10 3 -4 7 -14 8
-22z m-382 4 c-3 -4 -11 -5 -19 -1 -21 7 -19 12 4 10 11 0 18 -5 15 -9z m-100
-9 c-4 -7 0 -9 14 -5 23 8 39 -8 21 -20 -8 -5 -9 -3 -4 6 6 10 4 12 -9 7 -21
-8 -39 0 -31 14 4 5 8 9 11 9 3 0 2 -5 -2 -11z m82 -11 c4 -7 3 -8 -4 -4 -11
7 -17 -6 -13 -27 1 -5 -3 -6 -9 -2 -7 4 -7 12 0 26 12 22 16 23 26 7z m29 -15
c-11 -7 -24 -13 -29 -13 -6 1 -1 6 12 13 12 7 19 17 15 22 -4 4 -2 5 6 0 12
-7 11 -10 -4 -22z m432 4 c1 -11 1 -18 0 -16 -2 2 -8 11 -15 20 -9 12 -9 16 1
16 7 0 14 -9 14 -20z m-362 3 c-3 -5 -12 -10 -18 -10 -7 0 -6 4 3 10 19 12 23
12 15 0z m35 -5 c-7 -8 -17 -15 -23 -15 -6 0 -2 7 9 15 25 19 30 19 14 0z
m143 2 c4 3 7 1 7 -5 0 -6 -8 -10 -18 -9 -10 0 -19 7 -19 14 0 9 4 10 12 3 7
-5 15 -7 18 -3z m43 -6 c0 -16 -3 -17 -14 -9 -12 10 -7 19 13 28 1 0 1 -9 1
-19z m-498 -9 c-10 -2 -18 -8 -18 -13 0 -5 -5 -9 -11 -9 -8 0 -9 4 0 13 6 8 8
16 5 20 -3 3 5 3 18 -1 18 -5 19 -7 6 -10z m82 8 c0 -5 -8 -10 -17 -10 -15 0
-16 2 -3 10 19 12 20 12 20 0z m277 4 c-3 -3 -12 -4 -19 -1 -8 3 -5 6 6 6 11
1 17 -2 13 -5z m254 -11 c13 -16 12 -17 -3 -4 -10 7 -18 15 -18 17 0 8 8 3 21
-13z m109 7 c0 -5 -2 -10 -4 -10 -3 0 -8 5 -11 10 -3 6 -1 10 4 10 6 0 11 -4
11 -10z m134 -6 c3 -8 2 -12 -4 -9 -6 3 -10 10 -10 16 0 14 7 11 14 -7z m361
6 c3 -5 1 -10 -4 -10 -6 0 -11 5 -11 10 0 6 2 10 4 10 3 0 8 -4 11 -10z
m-1295 -20 c0 -5 -4 -10 -10 -10 -5 0 -8 -6 -6 -12 1 -7 1 -10 -1 -5 -3 4 -9
4 -15 1 -5 -3 -4 3 4 15 14 22 28 28 28 11z m120 0 c0 -5 -4 -10 -10 -10 -5 0
-10 5 -10 10 0 6 5 10 10 10 6 0 10 -4 10 -10z m80 0 c0 -5 -8 -7 -17 -3 -17
6 -17 5 0 -14 9 -11 17 -23 17 -27 0 -5 -9 2 -19 15 -11 13 -17 27 -14 31 6
11 33 10 33 -2z m471 -7 c13 -16 12 -17 -3 -4 -10 7 -18 15 -18 17 0 8 8 3 21
-13z m93 9 c2 -4 -4 -8 -14 -8 -10 0 -16 4 -14 8 3 4 9 8 14 8 5 0 11 -4 14
-8z m411 -2 c3 -5 1 -10 -4 -10 -6 0 -11 5 -11 10 0 6 2 10 4 10 3 0 8 -4 11
-10z m-943 -14 c7 4 8 2 4 -4 -11 -18 -26 -14 -25 6 0 10 3 12 6 4 2 -6 10 -9
15 -6z m164 3 c3 -6 1 -16 -6 -22 -10 -9 -11 -9 -5 2 4 8 2 17 -6 22 -9 6 -10
9 -2 9 6 0 15 -5 19 -11z m582 -14 c-3 -3 -9 2 -12 12 -6 14 -5 15 5 6 7 -7
10 -15 7 -18z m-1021 -12 l28 -26 -32 19 c-18 10 -33 22 -33 26 0 13 8 9 37
-19z m73 17 c0 -5 -2 -10 -4 -10 -3 0 -8 5 -11 10 -3 6 -1 10 4 10 6 0 11 -4
11 -10z m64 -5 c8 -22 -29 -39 -44 -20 -7 9 -10 18 -6 22 3 3 6 2 6 -3 0 -5 9
-10 21 -11 17 -2 18 1 9 13 -8 8 -8 14 -2 14 5 0 12 -7 16 -15z m56 0 c0 -8 6
-14 13 -12 7 1 12 -8 12 -20 0 -13 -4 -23 -10 -22 -5 0 -13 -8 -17 -18 -7 -16
-8 -16 -5 2 2 11 9 19 15 18 7 -2 12 6 12 18 0 11 -4 18 -9 14 -6 -3 -15 4
-21 15 -7 13 -7 20 0 20 5 0 10 -7 10 -15z m122 -7 c-7 -7 -12 -8 -12 -2 0 14
12 26 19 19 2 -3 -1 -11 -7 -17z m68 12 c0 -5 -3 -9 -7 -8 -5 1 -19 -4 -33
-11 l-25 -12 25 20 c28 23 40 26 40 11z m237 -5 c0 -8 -4 -12 -9 -9 -5 3 -6
10 -3 15 9 13 12 11 12 -6z m74 -2 c13 -16 12 -17 -3 -4 -10 7 -18 15 -18 17
0 8 8 3 21 -13z m64 -1 c-3 -3 -11 0 -18 7 -9 10 -8 11 6 5 10 -3 15 -9 12
-12z m38 -7 c-3 -9 -8 -14 -10 -11 -3 3 -2 9 2 15 9 16 15 13 8 -4z m-877 -22
c1 -15 -3 -20 -14 -15 -11 4 -12 7 -4 10 7 2 12 8 12 13 0 6 -4 7 -10 4 -5 -3
-10 -1 -10 5 0 21 25 4 26 -17z m164 -3 c0 -3 -5 -12 -11 -20 -9 -13 -10 -12
-5 3 3 11 0 20 -9 23 -8 4 -15 10 -15 15 0 5 9 4 20 -3 11 -7 20 -15 20 -18z
m313 10 c-10 -11 -19 -20 -21 -20 -1 0 2 9 8 20 6 11 15 20 20 20 6 0 2 -9 -7
-20z m76 6 c9 -10 8 -15 -3 -19 -9 -4 -18 -1 -22 5 -5 7 -2 8 6 3 10 -6 12 -4
7 8 -8 21 -3 22 12 3z m196 -33 c-18 -17 -18 -17 -6 0 11 14 11 20 0 35 -12
16 -12 16 6 0 19 -18 19 -18 0 -35z m595 43 c0 -3 -4 -8 -10 -11 -5 -3 -10 -1
-10 4 0 6 5 11 10 11 6 0 10 -2 10 -4z m36 -11 c-1 -8 -5 -17 -8 -21 -5 -4 -4
16 1 34 3 9 9 -1 7 -13z m-699 -1 c-3 -3 -12 -4 -19 -1 -8 3 -5 6 6 6 11 1 17
-2 13 -5z m-660 -26 c-3 -8 -6 -5 -6 6 -1 11 2 17 5 13 3 -3 4 -12 1 -19z
m243 12 c0 -5 -4 -10 -10 -10 -5 0 -10 5 -10 10 0 6 5 10 10 10 6 0 10 -4 10
-10z m100 2 c0 -5 -7 -9 -15 -9 -8 0 -15 4 -15 9 0 4 7 8 15 8 8 0 15 -4 15
-8z m60 -12 c-6 -11 -13 -20 -16 -20 -2 0 0 9 6 20 6 11 13 20 16 20 2 0 0 -9
-6 -20z m88 8 c15 -15 15 -28 1 -28 -5 0 -8 4 -4 9 3 6 -3 14 -12 20 -10 6
-13 11 -7 11 5 0 15 -5 22 -12z m209 -8 c-1 -11 -5 -20 -9 -20 -3 0 -6 9 -5
20 1 11 5 20 9 20 3 0 6 -9 5 -20z m-640 -10 c1 -13 -4 -20 -15 -20 -15 0 -15
2 -2 10 8 5 11 10 7 10 -5 0 -5 5 -2 10 9 14 11 13 12 -10z m45 13 c-9 -3 -10
-9 -2 -18 8 -9 4 -17 -15 -29 -14 -9 -25 -12 -25 -6 0 5 5 10 11 10 5 0 7 4 4
10 -4 6 1 7 12 4 17 -5 17 -5 0 9 -18 15 -10 25 18 25 6 0 4 -2 -3 -5z m91
-21 c-4 -15 13 -16 20 -2 3 6 4 5 3 -2 -2 -7 -11 -13 -20 -13 -20 0 -40 -30
-31 -45 3 -6 -1 -7 -10 -4 -13 5 -12 11 10 40 24 31 24 33 5 31 -11 -1 -20 -7
-20 -14 0 -7 -5 -13 -10 -13 -7 0 -7 6 -1 19 11 20 58 23 54 3z m98 -5 c-10
-9 -11 -8 -5 6 3 10 9 15 12 12 3 -3 0 -11 -7 -18z m78 0 c0 -9 -2 -8 -6 1 -2
6 -10 9 -15 6 -7 -4 -8 -2 -4 5 9 13 26 5 25 -12z m41 -2 c-7 -8 -16 -15 -21
-15 -5 0 -1 8 9 18 20 22 31 19 12 -3z m215 15 c-3 -5 -12 -10 -18 -10 -7 0
-6 4 3 10 19 12 23 12 15 0z m570 0 c3 -5 1 -10 -4 -10 -6 0 -11 5 -11 10 0 6
2 10 4 10 3 0 8 -4 11 -10z m45 6 c0 -3 -4 -8 -10 -11 -5 -3 -10 -1 -10 4 0 6
5 11 10 11 6 0 10 -2 10 -4z m-1320 -16 c0 -5 -2 -10 -4 -10 -3 0 -8 5 -11 10
-3 6 -1 10 4 10 6 0 11 -4 11 -10z m31 -3 c-15 -19 34 -63 54 -47 9 8 14 7 18
-3 9 -23 -51 -13 -72 12 -19 22 -19 51 1 51 7 0 6 -5 -1 -13z m806 -2 c0 -8
-4 -12 -9 -9 -5 3 -6 10 -3 15 9 13 12 11 12 -6z m161 -10 c-3 -3 -9 2 -12 12
-6 14 -5 15 5 6 7 -7 10 -15 7 -18z m-933 5 c-3 -5 -1 -10 4 -10 6 0 11 -5 11
-10 0 -6 -8 -5 -19 2 -19 12 -19 28 0 28 6 0 7 -4 4 -10z m351 -2 c4 -6 3 -8
-3 -5 -6 4 -13 1 -16 -6 -7 -18 -50 -15 -55 4 -2 8 0 10 5 4 12 -15 43 -15 43
1 0 17 16 18 26 2z m101 -10 c-3 -8 -6 -5 -6 6 -1 11 2 17 5 13 3 -3 4 -12 1
-19z m33 18 c0 -3 -4 -8 -10 -11 -5 -3 -10 -1 -10 4 0 6 5 11 10 11 6 0 10 -2
10 -4z m101 -13 c12 -16 12 -17 -2 -6 -9 7 -19 10 -22 6 -4 -3 -7 -1 -7 5 0
17 16 15 31 -5z m53 -10 c4 -10 4 -14 0 -10 -4 4 -12 -1 -19 -10 -9 -13 -14
-13 -20 -3 -6 9 -4 11 5 5 10 -6 12 -4 7 9 -4 10 -3 15 3 11 6 -3 10 -1 10 4
0 16 7 13 14 -6z m117 0 c13 -16 12 -17 -3 -4 -10 7 -18 15 -18 17 0 8 8 3 21
-13z m-795 -50 c-3 -4 -6 -1 -6 6 0 7 -6 11 -12 8 -8 -3 -14 5 -14 19 l-2 24
20 -26 c11 -14 18 -28 14 -31z m166 35 c-7 -7 -12 -8 -12 -2 0 14 12 26 19 19
2 -3 -1 -11 -7 -17z m131 -7 c3 -13 1 -18 -9 -14 -7 2 -10 11 -7 19 4 10 0 13
-13 8 -15 -5 -16 -4 -4 4 17 13 26 8 33 -17z m111 18 c-4 -8 1 -9 17 -5 20 6
21 5 6 -4 -19 -12 -41 -4 -32 11 4 5 8 9 11 9 3 0 2 -5 -2 -11z m63 -20 c0
-21 -3 -26 -9 -16 -4 9 -5 22 -2 31 9 23 11 20 11 -15z m78 22 c3 -5 2 -12 -3
-15 -5 -3 -9 1 -9 9 0 17 3 19 12 6z m282 2 c-4 -3 1 -16 10 -27 14 -15 14
-18 2 -8 -9 6 -18 9 -22 6 -3 -3 -4 2 -2 13 5 24 4 23 12 23 3 0 3 -3 0 -7z
m418 -3 c3 -5 1 -10 -4 -10 -6 0 -11 5 -11 10 0 6 2 10 4 10 3 0 8 -4 11 -10z
m135 4 c0 -8 -19 -13 -24 -6 -3 5 1 9 9 9 8 0 15 -2 15 -3z m64 -2 c2 -4 -5
-9 -17 -9 -17 -2 -19 0 -7 7 18 12 18 12 24 2z m-1200 -17 c3 -8 1 -15 -4 -15
-6 0 -10 7 -10 15 0 8 2 15 4 15 2 0 6 -7 10 -15z m343 9 c-3 -3 -12 -4 -19
-1 -8 3 -5 6 6 6 11 1 17 -2 13 -5z m182 -8 c9 -10 8 -15 -2 -19 -8 -3 -13 3
-13 14 0 23 0 23 15 5z m121 10 c0 -2 -8 -10 -17 -17 -16 -13 -17 -12 -4 4 13
16 21 21 21 13z m-940 -18 c0 -11 -28 -10 -35 1 -3 6 4 9 15 8 11 -1 20 -5 20
-9z m187 -10 c-3 -8 -6 -5 -6 6 -1 11 2 17 5 13 3 -3 4 -12 1 -19z m207 9 c3
3 6 1 6 -5 0 -16 -12 -15 -36 4 -18 15 -18 15 2 5 12 -6 24 -7 28 -4z m44 -12
c-3 -3 -9 2 -12 12 -6 14 -5 15 5 6 7 -7 10 -15 7 -18z m113 8 c13 -16 12 -17
-3 -4 -10 7 -18 15 -18 17 0 8 8 3 21 -13z m-391 -3 c0 -5 -2 -10 -4 -10 -3 0
-8 5 -11 10 -3 6 -1 10 4 10 6 0 11 -4 11 -10z m494 1 c4 -5 -3 -7 -14 -4 -23
6 -26 13 -6 13 8 0 17 -4 20 -9z m103 -7 c-3 -3 -12 -4 -19 -1 -8 3 -5 6 6 6
11 1 17 -2 13 -5z m240 0 c-3 -3 -12 -4 -19 -1 -8 3 -5 6 6 6 11 1 17 -2 13
-5z m88 -4 c-3 -5 -12 -10 -18 -10 -7 0 -6 4 3 10 19 12 23 12 15 0z m215 0
c0 -5 -2 -10 -4 -10 -3 0 -8 5 -11 10 -3 6 -1 10 4 10 6 0 11 -4 11 -10z m40
0 c0 -5 -2 -10 -4 -10 -3 0 -8 5 -11 10 -3 6 -1 10 4 10 6 0 11 -4 11 -10z
m-106 -30 c-6 -6 -10 -3 -10 10 0 13 4 16 10 10 7 -7 7 -13 0 -20z m171 11
c-9 -8 -36 -10 -30 -2 2 4 11 8 20 8 8 0 13 -3 10 -6z m55 -1 c0 -5 -2 -10 -4
-10 -3 0 -8 5 -11 10 -3 6 -1 10 4 10 6 0 11 -4 11 -10z m-125 -20 c3 -5 1
-10 -4 -10 -6 0 -11 5 -11 10 0 6 2 10 4 10 3 0 8 -4 11 -10z m576 -27 c13
-16 12 -17 -3 -4 -10 7 -18 15 -18 17 0 8 8 3 21 -13z m-471 3 c0 -2 -6 -9
-14 -15 -11 -9 -16 -9 -22 0 -4 7 -3 9 4 5 6 -3 13 -2 17 4 6 10 15 14 15 6z
m-100 -16 c0 -5 -5 -10 -11 -10 -5 0 -7 5 -4 10 3 6 8 10 11 10 2 0 4 -4 4
-10z m180 -16 c0 -8 -19 -13 -24 -6 -3 5 1 9 9 9 8 0 15 -2 15 -3z m170 2 c0
-2 -8 -10 -17 -17 -16 -13 -17 -12 -4 4 13 16 21 21 21 13z m-234 -42 c1 -9 0
-13 -4 -10 -3 4 -7 14 -8 22 -1 9 0 13 4 10 3 -4 7 -14 8 -22z m-282 -10 c3
-8 2 -12 -4 -9 -6 3 -10 10 -10 16 0 14 7 11 14 -7z m343 1 c0 -8 -4 -12 -9
-9 -5 3 -6 10 -3 15 9 13 12 11 12 -6z m453 9 c0 -8 -19 -13 -24 -6 -3 5 1 9
9 9 8 0 15 -2 15 -3z m-670 -64 c0 -5 -5 -10 -11 -10 -5 0 -7 5 -4 10 3 6 8
10 11 10 2 0 4 -4 4 -10z m40 6 c0 -3 -4 -8 -10 -11 -5 -3 -10 -1 -10 4 0 6 5
11 10 11 6 0 10 -2 10 -4z m84 -4 c3 -5 -1 -9 -9 -9 -8 0 -12 4 -9 9 3 4 7 8
9 8 2 0 6 -4 9 -8z m-169 -42 c3 -5 1 -10 -4 -10 -6 0 -11 5 -11 10 0 6 2 10
4 10 3 0 8 -4 11 -10z m45 0 c0 -5 -5 -10 -11 -10 -5 0 -7 5 -4 10 3 6 8 10
11 10 2 0 4 -4 4 -10z m36 -5 c-1 -8 -5 -17 -8 -21 -5 -4 -4 16 1 34 3 9 9 -1
7 -13z m120 -11 c1 -9 0 -13 -4 -10 -3 4 -7 14 -8 22 -1 9 0 13 4 10 3 -4 7
-14 8 -22z m178 -10 c3 -8 2 -12 -4 -9 -6 3 -10 10 -10 16 0 14 7 11 14 -7z
m-354 -18 c0 -2 -8 -10 -17 -17 -16 -13 -17 -12 -4 4 13 16 21 21 21 13z
m-100 -16 c0 -5 -2 -10 -4 -10 -3 0 -8 5 -11 10 -3 6 -1 10 4 10 6 0 11 -4 11
-10z m276 -5 c-1 -8 -5 -17 -8 -21 -5 -4 -4 16 1 34 3 9 9 -1 7 -13z m-32 -13
c3 -5 -1 -9 -9 -9 -8 0 -12 4 -9 9 3 4 7 8 9 8 2 0 6 -4 9 -8z m653 -7 c0 -8
-4 -12 -9 -9 -5 3 -6 10 -3 15 9 13 12 11 12 -6z m-621 -40 c-1 -8 -5 -17 -8
-21 -5 -4 -4 16 1 34 3 9 9 -1 7 -13z m-201 -35 c3 -5 1 -10 -4 -10 -6 0 -11
5 -11 10 0 6 2 10 4 10 3 0 8 -4 11 -10z m125 0 c0 -5 -2 -10 -4 -10 -3 0 -8
5 -11 10 -3 6 -1 10 4 10 6 0 11 -4 11 -10z m180 -20 c0 -5 -2 -10 -4 -10 -3
0 -8 5 -11 10 -3 6 -1 10 4 10 6 0 11 -4 11 -10z m-187 -35 c-7 -21 -12 -19
-10 4 0 11 5 18 9 15 4 -3 5 -11 1 -19z m43 10 c-1 -8 -5 -17 -8 -21 -5 -4 -4
16 1 34 3 9 9 -1 7 -13z m64 5 c0 -5 -5 -10 -11 -10 -5 0 -7 5 -4 10 3 6 8 10
11 10 2 0 4 -4 4 -10z m-300 -20 c0 -5 -2 -10 -4 -10 -3 0 -8 5 -11 10 -3 6
-1 10 4 10 6 0 11 -4 11 -10z m100 2 c0 -5 -7 -9 -15 -9 -8 0 -12 4 -9 9 3 4
9 8 15 8 5 0 9 -4 9 -8z m40 -2 c0 -5 -5 -10 -11 -10 -5 0 -7 5 -4 10 3 6 8
10 11 10 2 0 4 -4 4 -10z m136 -25 c-1 -8 -5 -17 -8 -21 -5 -4 -4 16 1 34 3 9
9 -1 7 -13z m-76 -35 c0 -5 -2 -10 -4 -10 -3 0 -8 5 -11 10 -3 6 -1 10 4 10 6
0 11 -4 11 -10z m-175 -19 c-9 -8 -36 -10 -30 -2 2 4 11 8 20 8 8 0 13 -3 10
-6z m230 -9 c-3 -3 -11 0 -18 7 -9 10 -8 11 6 5 10 -3 15 -9 12 -12z m209 10
c3 -5 -1 -9 -9 -9 -8 0 -12 4 -9 9 3 4 7 8 9 8 2 0 6 -4 9 -8z m-228 -98 c1
-9 0 -13 -4 -10 -3 4 -7 14 -8 22 -1 9 0 13 4 10 3 -4 7 -14 8 -22z m44 16 c0
-5 -2 -10 -4 -10 -3 0 -8 5 -11 10 -3 6 -1 10 4 10 6 0 11 -4 11 -10z m60 -15
c0 -7 -30 -13 -34 -7 -3 4 4 9 15 9 10 1 19 0 19 -2z m-185 -45 c3 -5 1 -10
-4 -10 -6 0 -11 5 -11 10 0 6 2 10 4 10 3 0 8 -4 11 -10z m219 -6 c3 -8 2 -12
-4 -9 -6 3 -10 10 -10 16 0 14 7 11 14 -7z m83 -9 c0 -8 -4 -12 -9 -9 -5 3 -6
10 -3 15 9 13 12 11 12 -6z m-297 -25 c0 -5 -5 -10 -11 -10 -5 0 -7 5 -4 10 3
6 8 10 11 10 2 0 4 -4 4 -10z m90 4 c0 -8 -19 -13 -24 -6 -3 5 1 9 9 9 8 0 15
-2 15 -3z m26 -20 c1 -9 0 -13 -4 -10 -3 4 -7 14 -8 22 -1 9 0 13 4 10 3 -4 7
-14 8 -22z m-1 -53 c3 -5 2 -12 -3 -15 -5 -3 -9 1 -9 9 0 17 3 19 12 6z m-255
-45 c0 -3 -4 -8 -10 -11 -5 -3 -10 -1 -10 4 0 6 5 11 10 11 6 0 10 -2 10 -4z
m60 0 c0 -3 -4 -8 -10 -11 -5 -3 -10 -1 -10 4 0 6 5 11 10 11 6 0 10 -2 10 -4z
m40 -6 c0 -5 -5 -10 -11 -10 -5 0 -7 5 -4 10 3 6 8 10 11 10 2 0 4 -4 4 -10z
m40 0 c0 -5 -2 -10 -4 -10 -3 0 -8 5 -11 10 -3 6 -1 10 4 10 6 0 11 -4 11 -10z
m84 2 c3 -5 -1 -9 -9 -9 -8 0 -12 4 -9 9 3 4 7 8 9 8 2 0 6 -4 9 -8z m76 -16
c0 -3 -4 -8 -10 -11 -5 -3 -10 -1 -10 4 0 6 5 11 10 11 6 0 10 -2 10 -4z
m-200 -26 c0 -5 -5 -10 -11 -10 -5 0 -7 5 -4 10 3 6 8 10 11 10 2 0 4 -4 4
-10z m40 0 c0 -5 -5 -10 -11 -10 -5 0 -7 5 -4 10 3 6 8 10 11 10 2 0 4 -4 4
-10z m95 -79 c-9 -8 -36 -10 -30 -2 2 4 11 8 20 8 8 0 13 -3 10 -6z m-235 -35
c0 -3 -4 -8 -10 -11 -5 -3 -10 -1 -10 4 0 6 5 11 10 11 6 0 10 -2 10 -4z m60
0 c0 -3 -4 -8 -10 -11 -5 -3 -10 -1 -10 4 0 6 5 11 10 11 6 0 10 -2 10 -4z
m60 -26 c0 -5 -2 -10 -4 -10 -3 0 -8 5 -11 10 -3 6 -1 10 4 10 6 0 11 -4 11
-10z m53 -5 c4 -8 3 -16 -1 -19 -4 -3 -9 4 -9 15 -2 23 3 25 10 4z m2 -55 c3
-5 1 -10 -4 -10 -6 0 -11 5 -11 10 0 6 2 10 4 10 3 0 8 -4 11 -10z m81 -25
c-1 -8 -5 -17 -8 -21 -5 -4 -4 16 1 34 3 9 9 -1 7 -13z m89 5 c-3 -5 -12 -10
-18 -10 -7 0 -6 4 3 10 19 12 23 12 15 0z m-245 -60 c0 -5 -2 -10 -4 -10 -3 0
-8 5 -11 10 -3 6 -1 10 4 10 6 0 11 -4 11 -10z m35 0 c3 -5 1 -10 -4 -10 -6 0
-11 5 -11 10 0 6 2 10 4 10 3 0 8 -4 11 -10z m45 0 c0 -5 -5 -10 -11 -10 -5 0
-7 5 -4 10 3 6 8 10 11 10 2 0 4 -4 4 -10z m113 -15 c-7 -21 -12 -19 -10 4 0
11 5 18 9 15 4 -3 5 -11 1 -19z m-283 -1 c0 -8 -19 -13 -24 -6 -3 5 1 9 9 9 8
0 15 -2 15 -3z m243 -17 c4 3 7 4 7 0 0 -17 -20 -14 -36 6 -19 22 -19 22 2 4
11 -9 24 -14 27 -10z m-59 -33 c3 -8 2 -12 -4 -9 -6 3 -10 10 -10 16 0 14 7
11 14 -7z m161 -13 c3 -5 2 -12 -3 -15 -5 -3 -9 1 -9 9 0 17 3 19 12 6z m-139
-26 c-1 -8 -5 -17 -8 -21 -5 -4 -4 16 1 34 3 9 9 -1 7 -13z m-166 -29 c0 -2
-8 -10 -17 -17 -16 -13 -17 -12 -4 4 13 16 21 21 21 13z m45 -26 c3 -5 1 -10
-4 -10 -6 0 -11 5 -11 10 0 6 2 10 4 10 3 0 8 -4 11 -10z m45 0 c0 -5 -5 -10
-11 -10 -5 0 -7 5 -4 10 3 6 8 10 11 10 2 0 4 -4 4 -10z m100 0 c0 -5 -2 -10
-4 -10 -3 0 -8 5 -11 10 -3 6 -1 10 4 10 6 0 11 -4 11 -10z m-145 -40 c3 -5 1
-10 -4 -10 -6 0 -11 5 -11 10 0 6 2 10 4 10 3 0 8 -4 11 -10z m141 -2 c3 -4
-1 -5 -10 -4 -8 1 -18 5 -22 8 -3 4 1 5 10 4 8 -1 18 -5 22 -8z m325 -15 c13
-16 12 -17 -3 -4 -10 7 -18 15 -18 17 0 8 8 3 21 -13z m-461 -23 c0 -5 -2 -10
-4 -10 -3 0 -8 5 -11 10 -3 6 -1 10 4 10 6 0 11 -4 11 -10z m35 0 c3 -5 1 -10
-4 -10 -6 0 -11 5 -11 10 0 6 2 10 4 10 3 0 8 -4 11 -10z m81 -56 c1 -9 0 -13
-4 -10 -3 4 -7 14 -8 22 -1 9 0 13 4 10 3 -4 7 -14 8 -22z m38 18 c3 -5 -1 -9
-9 -9 -8 0 -12 4 -9 9 3 4 7 8 9 8 2 0 6 -4 9 -8z m-119 -31 c3 -5 2 -12 -3
-15 -5 -3 -9 1 -9 9 0 17 3 19 12 6z m-135 -5 c0 -3 -4 -8 -10 -11 -5 -3 -10
-1 -10 4 0 6 5 11 10 11 6 0 10 -2 10 -4z m60 0 c0 -3 -4 -8 -10 -11 -5 -3
-10 -1 -10 4 0 6 5 11 10 11 6 0 10 -2 10 -4z m115 -6 c3 -5 1 -10 -4 -10 -6
0 -11 5 -11 10 0 6 2 10 4 10 3 0 8 -4 11 -10z m41 -96 c1 -9 0 -13 -4 -10 -3
4 -7 14 -8 22 -1 9 0 13 4 10 3 -4 7 -14 8 -22z m38 18 c3 -5 -1 -9 -9 -9 -8
0 -12 4 -9 9 3 4 7 8 9 8 2 0 6 -4 9 -8z m-99 -11 c3 -5 2 -12 -3 -15 -5 -3
-9 1 -9 9 0 17 3 19 12 6z m282 -6 c0 -8 -4 -12 -9 -9 -5 3 -6 10 -3 15 9 13
12 11 12 -6z m-142 -5 c3 -5 1 -10 -4 -10 -6 0 -11 5 -11 10 0 6 2 10 4 10 3
0 8 -4 11 -10z m-99 -35 c-1 -8 -5 -17 -8 -21 -5 -4 -4 16 1 34 3 9 9 -1 7
-13z m-196 -19 c0 -3 -4 -8 -10 -11 -5 -3 -10 -1 -10 4 0 6 5 11 10 11 6 0 10
-2 10 -4z m60 0 c0 -3 -4 -8 -10 -11 -5 -3 -10 -1 -10 4 0 6 5 11 10 11 6 0
10 -2 10 -4z m196 -22 c1 -9 0 -13 -4 -10 -3 4 -7 14 -8 22 -1 9 0 13 4 10 3
-4 7 -14 8 -22z m-136 -4 c0 -5 -2 -10 -4 -10 -3 0 -8 5 -11 10 -3 6 -1 10 4
10 6 0 11 -4 11 -10z m53 -5 c4 -8 3 -16 -1 -19 -4 -3 -9 4 -9 15 -2 23 3 25
10 4z m83 -40 c-1 -8 -5 -17 -8 -21 -5 -4 -4 16 1 34 3 9 9 -1 7 -13z m-81
-15 c3 -5 1 -10 -4 -10 -6 0 -11 5 -11 10 0 6 2 10 4 10 3 0 8 -4 11 -10z
m178 -35 c-3 -9 -8 -14 -10 -11 -3 3 -2 9 2 15 9 16 15 13 8 -4z m-253 -45 c0
-5 -2 -10 -4 -10 -3 0 -8 5 -11 10 -3 6 -1 10 4 10 6 0 11 -4 11 -10z m35 0
c3 -5 1 -10 -4 -10 -6 0 -11 5 -11 10 0 6 2 10 4 10 3 0 8 -4 11 -10z m45 0
c0 -5 -5 -10 -11 -10 -5 0 -7 5 -4 10 3 6 8 10 11 10 2 0 4 -4 4 -10z m140 -5
c0 -2 -9 -3 -19 -2 -11 0 -18 5 -15 9 4 6 34 0 34 -7z m-310 -11 c0 -8 -19
-13 -24 -6 -3 5 1 9 9 9 8 0 15 -2 15 -3z m250 -4 c0 -5 -5 -10 -11 -10 -5 0
-7 5 -4 10 3 6 8 10 11 10 2 0 4 -4 4 -10z m184 2 c3 -5 -1 -9 -9 -9 -8 0 -12
4 -9 9 3 4 7 8 9 8 2 0 6 -4 9 -8z m-250 -48 c3 -8 2 -12 -4 -9 -6 3 -10 10
-10 16 0 14 7 11 14 -7z m22 -39 c-1 -8 -5 -17 -8 -21 -5 -4 -4 16 1 34 3 9 9
-1 7 -13z m38 -13 c3 -5 -1 -9 -9 -9 -8 0 -12 4 -9 9 3 4 7 8 9 8 2 0 6 -4 9
-8z m-139 -30 c-3 -3 -11 0 -18 7 -9 10 -8 11 6 5 10 -3 15 -9 12 -12z m58
-27 c-7 -21 -12 -19 -10 4 0 11 5 18 9 15 4 -3 5 -11 1 -19z m43 10 c-1 -8 -5
-17 -8 -21 -5 -4 -4 16 1 34 3 9 9 -1 7 -13z m-236 -15 c0 -5 -2 -10 -4 -10
-3 0 -8 5 -11 10 -3 6 -1 10 4 10 6 0 11 -4 11 -10z m135 0 c3 -5 1 -10 -4
-10 -6 0 -11 5 -11 10 0 6 2 10 4 10 3 0 8 -4 11 -10z m-121 -46 c3 -8 2 -12
-4 -9 -6 3 -10 10 -10 16 0 14 7 11 14 -7z m136 10 c0 -8 -19 -13 -24 -6 -3 5
1 9 9 9 8 0 15 -2 15 -3z m50 -24 c0 -5 -2 -10 -4 -10 -3 0 -8 5 -11 10 -3 6
-1 10 4 10 6 0 11 -4 11 -10z m-170 -16 c0 -8 -19 -13 -24 -6 -3 5 1 9 9 9 8
0 15 -2 15 -3z m104 -2 c3 -5 -1 -9 -9 -9 -8 0 -12 4 -9 9 3 4 7 8 9 8 2 0 6
-4 9 -8z m126 2 c0 -8 -19 -13 -24 -6 -3 5 1 9 9 9 8 0 15 -2 15 -3z m55 -4
c3 -5 1 -10 -4 -10 -6 0 -11 5 -11 10 0 6 2 10 4 10 3 0 8 -4 11 -10z m-295
-54 c0 -3 -4 -8 -10 -11 -5 -3 -10 -1 -10 4 0 6 5 11 10 11 6 0 10 -2 10 -4z
m60 0 c0 -3 -4 -8 -10 -11 -5 -3 -10 -1 -10 4 0 6 5 11 10 11 6 0 10 -2 10 -4z
m196 -11 c-1 -8 -5 -17 -8 -21 -5 -4 -4 16 1 34 3 9 9 -1 7 -13z m-101 -14 c3
-5 2 -12 -3 -15 -5 -3 -9 1 -9 9 0 17 3 19 12 6z m65 -15 c0 -3 -4 -8 -10 -11
-5 -3 -10 -1 -10 4 0 6 5 11 10 11 6 0 10 -2 10 -4z m140 -26 c0 -5 -2 -10 -4
-10 -3 0 -8 5 -11 10 -3 6 -1 10 4 10 6 0 11 -4 11 -10z m-80 -20 c0 -5 -5
-10 -11 -10 -5 0 -7 5 -4 10 3 6 8 10 11 10 2 0 4 -4 4 -10z m-105 -40 c3 -5
1 -10 -4 -10 -6 0 -11 5 -11 10 0 6 2 10 4 10 3 0 8 -4 11 -10z m82 -5 c0 -8
-4 -12 -9 -9 -5 3 -6 10 -3 15 9 13 12 11 12 -6z m-257 -29 c0 -3 -4 -8 -10
-11 -5 -3 -10 -1 -10 4 0 6 5 11 10 11 6 0 10 -2 10 -4z m60 0 c0 -3 -4 -8
-10 -11 -5 -3 -10 -1 -10 4 0 6 5 11 10 11 6 0 10 -2 10 -4z m60 -26 c0 -5 -2
-10 -4 -10 -3 0 -8 5 -11 10 -3 6 -1 10 4 10 6 0 11 -4 11 -10z m53 -5 c4 -8
3 -16 -1 -19 -4 -3 -9 4 -9 15 -2 23 3 25 10 4z m2 -55 c3 -5 1 -10 -4 -10 -6
0 -11 5 -11 10 0 6 2 10 4 10 3 0 8 -4 11 -10z m81 -25 c-1 -8 -5 -17 -8 -21
-5 -4 -4 16 1 34 3 9 9 -1 7 -13z m89 5 c-3 -5 -12 -10 -18 -10 -7 0 -6 4 3
10 19 12 23 12 15 0z m-245 -60 c0 -5 -2 -10 -4 -10 -3 0 -8 5 -11 10 -3 6 -1
10 4 10 6 0 11 -4 11 -10z m35 0 c3 -5 1 -10 -4 -10 -6 0 -11 5 -11 10 0 6 2
10 4 10 3 0 8 -4 11 -10z m45 0 c0 -5 -5 -10 -11 -10 -5 0 -7 5 -4 10 3 6 8
10 11 10 2 0 4 -4 4 -10z m113 -15 c-7 -21 -12 -19 -10 4 0 11 5 18 9 15 4 -3
5 -11 1 -19z m340 0 c-3 -9 -8 -14 -10 -11 -3 3 -2 9 2 15 9 16 15 13 8 -4z
m-623 -1 c0 -8 -19 -13 -24 -6 -3 5 1 9 9 9 8 0 15 -2 15 -3z m243 -17 c4 3 7
4 7 0 0 -17 -20 -14 -36 6 -19 22 -19 22 2 4 11 -9 24 -14 27 -10z m-59 -33
c3 -8 2 -12 -4 -9 -6 3 -10 10 -10 16 0 14 7 11 14 -7z m161 -13 c3 -5 2 -12
-3 -15 -5 -3 -9 1 -9 9 0 17 3 19 12 6z m-139 -26 c-1 -8 -5 -17 -8 -21 -5 -4
-4 16 1 34 3 9 9 -1 7 -13z m22 -60 c-3 -3 -9 2 -12 12 -6 14 -5 15 5 6 7 -7
10 -15 7 -18z m-63 -35 c3 -5 1 -10 -4 -10 -6 0 -11 5 -11 10 0 6 2 10 4 10 3
0 8 -4 11 -10z m-171 -22 c-3 -4 -9 -8 -15 -8 -5 0 -9 4 -9 8 0 5 7 9 15 9 8
0 12 -4 9 -9z m216 -12 c0 -3 -4 -8 -10 -11 -5 -3 -10 -1 -10 4 0 6 5 11 10
11 6 0 10 -2 10 -4z m-215 -26 c3 -6 -1 -7 -9 -4 -18 7 -21 14 -7 14 6 0 13
-4 16 -10z m249 -18 c3 -5 -1 -9 -9 -9 -8 0 -12 4 -9 9 3 4 7 8 9 8 2 0 6 -4
9 -8z m523 -17 c0 -8 -4 -12 -9 -9 -5 3 -6 10 -3 15 9 13 12 11 12 -6z m-403
-3 c3 -5 -1 -9 -9 -9 -8 0 -12 4 -9 9 3 4 7 8 9 8 2 0 6 -4 9 -8z m-20 -268
c3 -8 2 -12 -4 -9 -6 3 -10 10 -10 16 0 14 7 11 14 -7z m161 -62 c-3 -3 -11 0
-18 7 -9 10 -8 11 6 5 10 -3 15 -9 12 -12z m-75 -32 c0 -5 -2 -10 -4 -10 -3 0
-8 5 -11 10 -3 6 -1 10 4 10 6 0 11 -4 11 -10z m-86 -146 c3 -8 2 -12 -4 -9
-6 3 -10 10 -10 16 0 14 7 11 14 -7z"/>
<path d="M4315 6816 c-11 -7 -28 -12 -38 -10 -10 1 -21 -4 -24 -12 -3 -8 -10
-11 -16 -7 -6 4 -8 0 -4 -10 4 -12 2 -14 -11 -10 -15 6 -15 4 -4 -10 12 -14
43 -14 40 1 -2 21 3 32 13 26 8 -5 8 -9 -1 -14 -6 -4 -11 -10 -11 -14 3 -17 0
-26 -6 -25 -5 1 -14 1 -22 0 -20 -1 -5 -14 21 -18 12 -2 19 0 15 3 -4 4 1 16
10 27 10 10 17 21 16 23 -12 18 39 50 59 38 6 -4 9 -1 6 6 -6 20 -21 22 -43 6z"/>
<path d="M4183 6772 c-38 -20 -41 -27 -13 -29 11 -1 18 2 15 7 -3 6 1 7 9 4
13 -5 12 -9 -7 -24 l-22 -19 22 2 c26 1 38 24 23 42 -6 8 -6 15 2 23 15 15 10
14 -29 -6z"/>
<path d="M1948 6598 c-25 -9 -37 -28 -44 -68 -8 -42 -39 -71 -79 -75 -48 -3
-80 -49 -65 -90 11 -29 29 -41 71 -49 43 -8 64 -29 73 -75 3 -19 14 -43 23
-53 36 -40 113 -8 113 48 0 34 50 84 84 84 14 0 35 9 46 20 41 41 13 105 -50
115 -40 6 -80 45 -80 78 0 28 -24 63 -47 69 -10 3 -30 1 -45 -4z"/>
<path d="M822 5118 c-15 -8 -26 -26 -34 -56 -12 -47 -41 -82 -69 -82 -10 0
-29 -5 -42 -11 -67 -30 -42 -129 32 -129 33 0 70 -39 78 -83 18 -92 119 -89
137 4 10 53 38 79 85 79 28 0 61 38 61 70 0 35 -27 62 -66 68 -47 6 -63 21
-79 76 -11 39 -22 56 -41 65 -29 13 -32 13 -62 -1z"/>
<path d="M1335 4619 c-3 -4 2 -6 10 -5 21 3 28 13 10 13 -9 0 -18 -4 -20 -8z"/>
<path d="M1293 4535 c0 -8 4 -12 9 -9 5 3 6 10 3 15 -9 13 -12 11 -12 -6z"/>
<path d="M1410 4540 c0 -5 5 -10 11 -10 5 0 7 5 4 10 -3 6 -8 10 -11 10 -2 0
-4 -4 -4 -10z"/>
<path d="M1455 4540 c-3 -5 -1 -10 4 -10 6 0 11 5 11 10 0 6 -2 10 -4 10 -3 0
-8 -4 -11 -10z"/>
<path d="M1450 4500 c0 -5 5 -10 11 -10 5 0 7 5 4 10 -3 6 -8 10 -11 10 -2 0
-4 -4 -4 -10z"/>
<path d="M1156 4487 c3 -10 9 -15 12 -12 3 3 0 11 -7 18 -10 9 -11 8 -5 -6z"/>
<path d="M1295 4480 c-3 -5 -1 -10 4 -10 6 0 11 5 11 10 0 6 -2 10 -4 10 -3 0
-8 -4 -11 -10z"/>
<path d="M1339 4428 c-5 -18 -6 -38 -1 -34 7 8 12 36 6 36 -2 0 -4 -1 -5 -2z"/>
<path d="M1379 4428 c-5 -18 -6 -38 -1 -34 7 8 12 36 6 36 -2 0 -4 -1 -5 -2z"/>
<path d="M1155 4401 c-3 -5 -2 -12 3 -15 5 -3 9 1 9 9 0 17 -3 19 -12 6z"/>
<path d="M1374 4342 c4 -3 14 -7 22 -8 9 -1 13 0 10 4 -4 3 -14 7 -22 8 -9 1
-13 0 -10 -4z"/>
<path d="M1437 4333 c-10 -9 -9 -23 1 -23 5 0 9 7 9 15 0 17 -1 18 -10 8z"/>
<path d="M1326 4302 c-3 -5 1 -9 9 -9 8 0 12 4 9 9 -3 4 -7 8 -9 8 -2 0 -6 -4
-9 -8z"/>
<path d="M1375 4299 c-3 -4 2 -6 10 -5 21 3 28 13 10 13 -9 0 -18 -4 -20 -8z"/>
<path d="M831 4208 c-120 -111 -138 -157 -79 -201 23 -17 28 -17 61 -4 20 9
42 25 49 36 7 12 18 21 25 21 7 0 12 3 11 8 -3 8 84 97 93 95 14 -4 -11 82
-27 94 -35 25 -63 15 -133 -49z"/>
<path d="M1247 4239 c7 -7 15 -10 18 -7 3 3 -2 9 -12 12 -14 6 -15 5 -6 -5z"/>
<path d="M1339 4248 c-5 -18 -6 -38 -1 -34 7 8 12 36 6 36 -2 0 -4 -1 -5 -2z"/>
<path d="M1410 4220 c0 -5 5 -10 11 -10 5 0 7 5 4 10 -3 6 -8 10 -11 10 -2 0
-4 -4 -4 -10z"/>
<path d="M1339 4188 c-5 -18 -6 -38 -1 -34 7 8 12 36 6 36 -2 0 -4 -1 -5 -2z"/>
<path d="M1216 4158 c3 -5 10 -6 15 -3 13 9 11 12 -6 12 -8 0 -12 -4 -9 -9z"/>
<path d="M1410 4139 c0 -5 5 -7 10 -4 6 3 10 8 10 11 0 2 -4 4 -10 4 -5 0 -10
-5 -10 -11z"/>
<path d="M1375 4099 c-3 -4 2 -6 10 -5 21 3 28 13 10 13 -9 0 -18 -4 -20 -8z"/>
<path d="M1030 4081 c0 -6 4 -13 10 -16 6 -3 7 1 4 9 -7 18 -14 21 -14 7z"/>
<path d="M1150 4080 c0 -5 5 -10 11 -10 5 0 7 5 4 10 -3 6 -8 10 -11 10 -2 0
-4 -4 -4 -10z"/>
<path d="M1314 4062 c4 -3 14 -7 22 -8 9 -1 13 0 10 4 -4 3 -14 7 -22 8 -9 1
-13 0 -10 -4z"/>
<path d="M1395 4041 c-3 -5 -2 -12 3 -15 5 -3 9 1 9 9 0 17 -3 19 -12 6z"/>
<path d="M1286 4018 c3 -5 10 -6 15 -3 13 9 11 12 -6 12 -8 0 -12 -4 -9 -9z"/>
<path d="M1247 3999 c7 -7 15 -10 18 -7 3 3 -2 9 -12 12 -14 6 -15 5 -6 -5z"/>
<path d="M1415 3980 c3 -5 8 -10 11 -10 2 0 4 5 4 10 0 6 -5 10 -11 10 -5 0
-7 -4 -4 -10z"/>
<path d="M1366 3902 c-3 -5 1 -9 9 -9 8 0 12 4 9 9 -3 4 -7 8 -9 8 -2 0 -6 -4
-9 -8z"/>
<path d="M1375 3859 c-3 -4 2 -6 10 -5 21 3 28 13 10 13 -9 0 -18 -4 -20 -8z"/>
<path d="M1273 3835 c0 -8 4 -12 9 -9 5 3 6 10 3 15 -9 13 -12 11 -12 -6z"/>
<path d="M1233 3825 c0 -8 4 -12 9 -9 5 3 6 10 3 15 -9 13 -12 11 -12 -6z"/>
<path d="M1315 3819 c-3 -4 2 -6 10 -5 21 3 28 13 10 13 -9 0 -18 -4 -20 -8z"/>
<path d="M1334 3782 c4 -3 14 -7 22 -8 9 -1 13 0 10 4 -4 3 -14 7 -22 8 -9 1
-13 0 -10 -4z"/>
<path d="M1185 3760 c-3 -6 1 -7 9 -4 18 7 21 14 7 14 -6 0 -13 -4 -16 -10z"/>
<path d="M1373 3735 c0 -8 4 -12 9 -9 5 3 6 10 3 15 -9 13 -12 11 -12 -6z"/>
<path d="M1196 3722 c-3 -5 1 -9 9 -9 8 0 12 4 9 9 -3 4 -7 8 -9 8 -2 0 -6 -4
-9 -8z"/>
<path d="M1376 3662 c-2 -4 -1 -14 4 -22 7 -11 9 -9 7 8 -1 24 -3 26 -11 14z"/>
<path d="M1295 3640 c-3 -5 -1 -10 4 -10 6 0 11 5 11 10 0 6 -2 10 -4 10 -3 0
-8 -4 -11 -10z"/>
<path d="M1413 3631 c0 -11 5 -18 9 -15 4 3 5 11 1 19 -7 21 -12 19 -10 -4z"/>
<path d="M1455 3620 c3 -5 8 -10 11 -10 2 0 4 5 4 10 0 6 -5 10 -11 10 -5 0
-7 -4 -4 -10z"/>
<path d="M1355 3611 c-3 -5 -2 -12 3 -15 5 -3 9 1 9 9 0 17 -3 19 -12 6z"/>
<path d="M1233 3585 c0 -8 4 -12 9 -9 5 3 6 10 3 15 -9 13 -12 11 -12 -6z"/>
<path d="M1450 3580 c0 -5 5 -10 11 -10 5 0 7 5 4 10 -3 6 -8 10 -11 10 -2 0
-4 -4 -4 -10z"/>
<path d="M1350 3541 c0 -6 4 -13 10 -16 6 -3 7 1 4 9 -7 18 -14 21 -14 7z"/>
<path d="M1415 3540 c3 -5 8 -10 11 -10 2 0 4 5 4 10 0 6 -5 10 -11 10 -5 0
-7 -4 -4 -10z"/>
<path d="M1354 3480 c0 -13 4 -16 10 -10 7 7 7 13 0 20 -6 6 -10 3 -10 -10z"/>
<path d="M6267 3469 c-40 -23 -168 -161 -173 -187 -8 -39 23 -75 65 -75 27 0
46 13 112 79 45 43 84 88 89 99 21 54 -43 112 -93 84z"/>
<path d="M1355 3430 c-4 -6 -11 -7 -17 -4 -7 4 -8 2 -4 -5 6 -9 11 -9 22 0 14
11 18 19 10 19 -3 0 -8 -5 -11 -10z"/>
<path d="M1415 3420 c3 -5 8 -10 11 -10 2 0 4 5 4 10 0 6 -5 10 -11 10 -5 0
-7 -4 -4 -10z"/>
<path d="M547 2239 c7 -7 15 -10 18 -7 3 3 -2 9 -12 12 -14 6 -15 5 -6 -5z"/>
<path d="M875 2089 c-4 -6 -5 -12 -2 -15 2 -3 7 2 10 11 7 17 1 20 -8 4z"/>
<path d="M870 1602 c0 -5 7 -9 15 -9 8 0 12 4 9 9 -3 4 -9 8 -15 8 -5 0 -9 -4
-9 -8z"/>
<path d="M787 1379 c7 -7 15 -10 18 -7 3 3 -2 9 -12 12 -14 6 -15 5 -6 -5z"/>
<path d="M875 1289 c-4 -6 -5 -12 -2 -15 2 -3 7 2 10 11 7 17 1 20 -8 4z"/>
<path d="M780 666 c0 -2 8 -10 18 -17 15 -13 16 -12 3 4 -13 16 -21 21 -21 13z"/>
<path d="M1359 553 c-13 -16 -12 -17 4 -4 16 13 21 21 13 21 -2 0 -10 -8 -17
-17z"/>
<path d="M1890 562 c0 -5 7 -9 15 -9 8 0 12 4 9 9 -3 4 -9 8 -15 8 -5 0 -9 -4
-9 -8z"/>
<path d="M1988 563 c10 -4 10 -8 0 -21 -10 -14 -9 -14 8 1 11 9 24 14 27 10 4
-3 7 -2 7 4 0 6 -12 10 -27 10 -16 0 -22 -2 -15 -4z"/>
<path d="M2130 558 c0 -6 3 -8 7 -5 3 4 12 2 20 -4 8 -7 13 -8 13 -1 0 5 -7
13 -16 16 -22 8 -24 8 -24 -6z"/>
<path d="M2247 559 c7 -7 15 -10 18 -7 3 3 -2 9 -12 12 -14 6 -15 5 -6 -5z"/>
<path d="M2351 560 c-9 -5 -4 -7 13 -7 29 0 32 2 13 10 -8 3 -20 2 -26 -3z"/>
<path d="M2414 553 c3 -20 33 -30 47 -16 6 6 3 15 -8 24 -16 13 -17 12 -4 -3
12 -16 11 -18 -8 -18 -12 0 -20 4 -16 9 3 5 1 12 -4 15 -5 4 -8 -2 -7 -11z"/>
<path d="M2510 563 c0 -6 6 -16 14 -22 18 -15 34 5 17 22 -9 9 -11 7 -6 -8 7
-20 6 -20 -9 -1 -9 11 -16 15 -16 9z"/>
<path d="M2716 563 c-3 -4 -6 -11 -6 -16 0 -6 3 -7 6 -4 4 4 15 -3 26 -15 10
-12 20 -19 22 -17 2 2 -6 16 -19 31 -13 15 -26 24 -29 21z"/>
<path d="M2750 557 c0 -4 14 -6 31 -3 24 3 29 1 25 -10 -3 -9 -2 -12 5 -9 5 4
8 12 6 18 -4 13 -67 17 -67 4z"/>
<path d="M2843 559 c9 -5 17 -15 17 -21 0 -7 -4 -7 -13 1 -11 8 -16 6 -24 -12
-9 -19 -8 -26 9 -36 15 -9 17 -15 8 -26 -13 -16 -52 -16 -47 0 2 5 13 8 23 7
15 -3 16 -1 7 9 -10 10 -15 9 -28 -1 -21 -18 -31 -5 -12 15 17 16 13 45 -5 45
-7 0 -6 -5 1 -14 9 -10 8 -16 -4 -26 -13 -10 -19 -10 -33 2 -18 16 -42 14 -42
-4 0 -7 4 -7 13 0 8 7 22 0 47 -24 37 -36 29 -48 -10 -14 -13 11 -30 20 -39
20 -11 0 -8 -5 8 -13 25 -13 30 -29 10 -36 -6 -2 -9 1 -5 7 3 6 1 14 -5 18 -8
4 -9 3 -5 -4 4 -7 3 -12 -3 -12 -5 0 -12 6 -14 13 -4 9 -6 9 -6 -1 -1 -7 6
-15 14 -18 8 -4 12 -11 8 -18 -4 -6 5 -3 20 7 30 20 47 23 29 5 -7 -7 -12 -16
-12 -22 0 -5 6 -2 13 7 15 21 68 33 63 15 -1 -7 -1 -10 1 -5 9 15 23 6 20 -13
-4 -23 -17 -39 -17 -20 0 9 -3 10 -13 1 -14 -11 -27 -5 -27 11 0 5 5 6 10 3 6
-3 10 -1 10 4 0 13 -10 14 -28 3 -9 -6 -7 -13 8 -30 l20 -21 -22 -15 c-12 -9
-18 -16 -13 -17 6 0 1 -5 -10 -10 -16 -7 -13 -8 13 -5 25 4 32 1 28 -9 -3 -9
0 -12 10 -8 11 4 12 9 3 19 -6 8 -15 11 -20 8 -5 -3 -9 -1 -9 5 0 17 17 21 30
6 6 -7 19 -11 28 -8 14 6 15 4 5 -8 -9 -11 -7 -14 13 -15 13 -1 24 2 24 8 0 5
-4 7 -9 3 -5 -3 -13 4 -16 15 -6 18 -9 19 -23 8 -13 -11 -15 -11 -9 4 4 11 2
15 -7 12 -7 -3 -13 2 -13 11 0 18 3 18 25 6 15 -8 17 -4 17 32 0 32 4 43 18
45 9 2 17 -2 17 -8 0 -6 -4 -9 -8 -6 -10 6 -10 -89 0 -99 4 -4 6 6 4 21 -1 16
2 35 7 42 11 14 37 16 37 2 0 -6 -6 -9 -12 -8 -9 2 -13 -15 -13 -60 0 -51 -4
-66 -19 -78 -26 -19 -37 -18 -30 4 4 10 3 13 -3 5 -11 -16 -45 -20 -50 -7 -2
7 4 11 13 10 9 0 19 5 21 12 3 6 0 12 -7 12 -6 0 -8 -5 -4 -12 5 -8 2 -9 -9
-5 -11 4 -20 -1 -27 -13 -6 -11 -17 -20 -26 -20 -11 0 -10 5 6 22 22 24 26 38
9 38 -5 0 -8 -4 -5 -9 3 -4 -3 -16 -14 -26 -15 -14 -23 -15 -34 -6 -11 9 -15
8 -20 -5 -9 -22 -7 -31 3 -16 6 10 13 11 34 1 20 -9 30 -9 40 -1 8 7 17 9 20
5 11 -11 8 -23 -5 -20 -15 3 -21 -24 -9 -42 7 -11 15 -7 40 20 l31 34 22 -25
c14 -16 19 -19 15 -7 -7 19 3 23 20 6 8 -8 13 -8 18 0 3 6 1 10 -6 9 -6 -2
-13 2 -16 9 -4 12 26 11 46 -1 5 -4 8 5 7 18 -2 14 0 30 5 37 4 7 4 21 -1 30
-7 12 -5 21 6 30 13 11 15 10 14 -2 -5 -29 0 -41 14 -36 10 4 14 0 13 -14 -1
-20 -17 -27 -17 -7 0 22 -12 0 -15 -28 -2 -24 -1 -26 10 -11 6 9 15 14 18 10
4 -3 7 -1 7 5 0 6 6 9 14 6 17 -6 31 12 16 21 -6 4 -8 11 -4 16 3 6 11 4 17
-5 9 -12 16 -13 27 -5 13 9 12 10 -2 5 -10 -3 -18 -2 -18 3 0 16 13 20 31 10
15 -8 17 -6 12 8 -6 16 -5 17 12 3 15 -12 17 -12 10 -1 -6 11 -4 13 9 8 10 -4
19 -1 22 8 4 8 11 12 17 8 6 -3 7 -1 3 5 -5 9 -13 9 -26 2 -25 -14 -30 -13
-24 5 4 8 11 12 16 9 6 -4 5 2 -1 14 -14 27 -14 29 4 29 9 0 14 -6 11 -13 -3
-7 7 -20 22 -30 24 -16 26 -16 13 -1 -8 10 -9 17 -3 17 6 0 14 -5 18 -11 4 -8
9 -7 15 2 4 8 12 14 16 14 17 1 44 22 47 36 4 27 23 52 30 40 4 -6 2 -11 -3
-11 -6 0 -11 -8 -11 -17 1 -17 2 -16 15 1 8 10 12 23 8 29 -3 5 4 7 18 3 13
-3 18 -3 11 0 -9 4 -5 12 12 25 29 23 44 25 22 3 -9 -8 -16 -20 -16 -26 0 -6
9 0 21 13 11 13 28 23 37 21 15 -2 15 -1 2 7 -11 8 -11 11 -2 12 6 1 18 2 25
3 6 1 11 8 9 15 -2 8 3 11 12 8 8 -3 19 0 25 7 8 9 4 12 -14 12 -14 0 -25 -5
-25 -10 0 -6 -5 -4 -10 4 -6 10 -10 11 -10 3 0 -7 -5 -13 -11 -13 -5 0 -7 5
-4 10 8 13 -18 8 -27 -5 -5 -6 -8 -4 -8 4 0 11 -4 10 -16 -5 -15 -18 -15 -18
-10 0 5 14 3 16 -6 8 -22 -17 -24 -18 -44 -2 -17 14 -18 14 -6 -2 11 -14 10
-18 -5 -27 -13 -6 -24 -6 -34 0 -12 8 -12 9 1 7 15 -3 20 3 20 22 0 6 -10 2
-22 -10 -23 -21 -38 -19 -20 3 9 10 6 13 -12 13 -17 0 -23 -5 -21 -17 3 -12
-2 -17 -16 -16 -19 1 -28 17 -9 17 6 0 10 3 10 8 0 4 -24 7 -54 7 -30 0 -52
-2 -50 -5 3 -3 11 -5 16 -5 6 0 13 -6 16 -13 2 -7 -2 -10 -11 -6 -22 8 -33
-17 -13 -31 15 -11 13 -14 -18 -29 -42 -20 -43 -20 -43 -1 0 8 9 13 20 12 17
-2 20 4 20 33 0 30 -3 35 -22 33 -12 -2 -20 1 -17 5 2 4 -4 8 -14 8 -10 0 -16
-4 -14 -8 7 -11 -3 -10 -29 3 -20 9 -21 9 -4 -4 13 -11 15 -16 5 -19 -7 -3
-19 3 -28 11 -8 9 -12 12 -7 7 15 -21 6 -28 -13 -11 -28 25 -52 29 -42 7 12
-25 7 -62 -12 -80 -15 -15 -17 -15 -33 1 -17 17 -17 17 6 15 22 -3 25 1 27 29
1 19 -5 38 -14 45 -12 10 -14 10 -8 1 4 -7 3 -13 -3 -13 -5 0 -13 5 -16 10 -3
6 -12 10 -18 10 -7 0 -4 -5 6 -11z m130 -32 c4 3 7 1 7 -5 0 -20 -19 -23 -29
-5 -5 10 -13 14 -17 10 -4 -4 2 -14 14 -23 12 -8 22 -20 22 -26 0 -7 -5 -6
-15 2 -8 6 -19 9 -25 5 -19 -12 -1 -22 32 -19 25 3 29 1 20 -8 -8 -8 -9 -15
-1 -25 8 -9 8 -13 0 -13 -6 0 -14 7 -17 15 -4 8 -10 15 -16 15 -5 0 -6 -4 -3
-10 10 -17 -7 -11 -22 8 -13 15 -13 15 -3 -5 10 -21 22 -27 43 -24 4 0 7 -8 7
-19 0 -11 -3 -19 -7 -19 -28 5 -35 -1 -22 -18 12 -15 12 -16 -6 -9 -15 5 -17
4 -8 -5 14 -14 34 -3 27 14 -2 7 4 13 16 14 16 1 18 -2 10 -15 -5 -9 -21 -28
-36 -42 -15 -14 -21 -26 -15 -28 9 -3 9 -8 0 -18 -10 -12 -9 -13 5 -8 10 4 15
13 11 24 -3 10 -1 21 5 25 10 6 15 -10 10 -30 -2 -5 -3 -17 -2 -25 0 -9 -8
-16 -19 -16 -10 0 -19 5 -19 10 0 6 -7 0 -16 -12 -8 -12 -20 -20 -25 -16 -5 3
1 14 14 25 22 16 24 25 22 78 -1 34 1 58 6 56 17 -11 21 19 4 31 -15 12 -20
11 -31 -4 -8 -9 -14 -12 -14 -5 0 6 5 15 11 18 6 4 8 13 5 21 -3 8 -2 14 3 14
13 0 27 43 25 74 l-3 29 23 -22 c12 -12 26 -18 29 -14z m213 14 c-1 -12 10
-16 39 -17 22 -1 45 -3 50 -4 26 -8 41 -4 53 12 10 14 18 16 32 8 10 -6 21 -6
24 -2 6 10 73 9 81 -1 3 -4 2 -5 -1 -2 -4 2 -16 -1 -28 -7 -11 -7 -25 -12 -31
-13 -5 0 -22 -8 -36 -18 -48 -32 -103 -31 -92 1 4 14 3 15 -5 2 -6 -8 -8 -18
-6 -22 3 -4 3 -8 0 -8 -2 0 -13 -3 -23 -6 -15 -6 -16 -4 -6 6 10 11 10 17 0
29 -10 12 -9 14 5 8 10 -3 20 -2 23 3 5 8 -17 7 -63 -4 -12 -3 -20 -2 -18 3 3
4 -13 6 -35 4 -21 -2 -39 1 -39 7 0 5 16 8 36 6 35 -2 35 -2 14 14 l-21 16 24
0 c16 0 24 -5 23 -15z m-301 -10 c-3 -6 -11 -11 -17 -11 -6 0 -6 6 2 15 14 17
26 13 15 -4z m198 10 c-11 -8 -10 -34 2 -44 6 -5 1 -6 -10 -3 -11 3 -27 1 -35
-4 -13 -9 -13 -10 0 -10 13 0 13 -1 0 -10 -22 -14 -26 -12 -26 10 0 19 9 25
29 21 5 -1 6 3 2 8 -3 6 -13 7 -22 4 -12 -5 -14 -3 -8 7 5 9 4 11 -4 6 -6 -4
-9 -11 -6 -16 4 -7 -24 -24 -31 -18 -5 5 21 34 39 45 19 10 84 14 70 4z m-210
-27 c27 -10 20 -23 -10 -20 -17 2 -29 10 -31 21 -3 11 1 15 10 11 7 -3 21 -9
31 -12z m322 -19 c17 0 31 -4 32 -10 3 -13 -38 -13 -56 0 -11 7 -13 7 -7 -2 4
-7 3 -13 -3 -13 -5 0 -11 3 -14 8 -2 4 -2 1 0 -6 2 -9 -4 -11 -20 -7 -12 3
-17 3 -12 -2 15 -12 16 -30 2 -36 -20 -8 -14 35 8 59 11 11 25 18 30 15 6 -3
24 -6 40 -6z m-185 -15 c0 -5 -4 -10 -10 -10 -5 0 -10 5 -10 10 0 6 5 10 10
10 6 0 10 -4 10 -10z m-155 -29 c-3 -6 -11 -11 -17 -11 -6 0 -6 6 2 15 14 17
26 13 15 -4z m350 10 c-7 -12 58 -9 66 3 9 11 31 -3 23 -15 -3 -5 -10 -7 -15
-4 -5 4 -9 1 -9 -4 0 -6 5 -11 12 -11 6 0 4 -8 -7 -20 -9 -10 -20 -19 -24 -18
-3 0 -9 -1 -13 -2 -5 -1 -21 -3 -37 -4 -22 -1 -27 2 -19 12 10 11 5 14 -18 11
-4 0 -11 5 -15 13 -5 7 -9 9 -10 3 -1 -5 -3 -23 -5 -40 -6 -51 -7 -54 -15 -49
-4 2 -10 0 -14 -6 -4 -6 -11 -7 -17 -4 -6 4 -13 2 -17 -4 -4 -7 -11 -4 -19 8
-11 18 -9 19 17 16 34 -4 60 7 42 18 -6 4 -11 13 -11 19 0 7 4 6 10 -3 5 -8
13 -11 17 -6 4 5 2 11 -4 13 -7 3 -13 11 -13 19 0 9 5 12 10 9 9 -6 14 8 11
28 -1 5 3 6 9 2 5 -3 10 -1 10 5 0 6 5 8 10 5 6 -4 8 -10 5 -15 -7 -11 35 -35
54 -31 8 1 10 -2 5 -10 -4 -8 -3 -10 5 -5 6 4 8 12 5 18 -4 6 1 8 15 3 13 -4
21 -2 21 5 0 6 -4 8 -10 5 -6 -4 -7 1 -4 12 5 15 4 16 -5 3 -10 -13 -12 -13
-21 0 -5 8 -10 10 -10 4 0 -6 -11 -11 -24 -11 -22 0 -23 2 -13 18 7 11 15 19
20 19 4 0 6 -4 2 -9z m-155 -20 c0 -14 -2 -14 -10 -1 -9 13 -10 13 -11 0 -4
-69 -8 -75 -35 -55 -18 14 -18 16 -1 29 9 7 17 19 16 27 0 10 -2 11 -6 1 -2
-6 -9 -10 -14 -6 -17 10 -1 21 31 21 21 0 30 -5 30 -16z m46 -39 c0 -42 -2
-50 -13 -41 -10 9 -13 8 -13 -2 0 -8 -5 -6 -13 6 -11 14 -16 15 -22 5 -6 -9
-4 -11 6 -5 11 6 12 5 2 -5 -9 -10 -9 -17 -2 -26 6 -7 8 -18 4 -24 -9 -15 -28
-1 -21 16 3 8 1 14 -5 14 -5 0 -2 14 6 31 9 17 14 33 12 35 -7 8 37 54 48 51
5 -2 10 -27 11 -55z m-86 -42 c0 -5 -4 -10 -10 -10 -5 0 -10 5 -10 10 0 6 5
10 10 10 6 0 10 -4 10 -10z m0 -36 c0 -8 -5 -12 -10 -9 -6 4 -8 11 -5 16 9 14
15 11 15 -7z m35 -44 c3 -5 2 -10 -4 -10 -5 0 -13 5 -16 10 -3 6 -2 10 4 10 5
0 13 -4 16 -10z m-215 -65 c-27 -28 -40 -32 -40 -10 0 8 3 14 8 14 19 -3 33 2
27 11 -3 6 2 10 11 10 15 0 14 -4 -6 -25z"/>
<path d="M3385 531 c-3 -6 -15 -8 -27 -6 -12 3 -25 -1 -30 -8 -4 -6 -12 -12
-18 -12 -5 0 -10 -4 -10 -10 0 -9 7 -10 41 -6 6 0 8 8 5 17 -5 13 -4 14 7 5
11 -8 18 -6 32 9 10 11 15 20 12 20 -3 0 -8 -4 -12 -9z"/>
<path d="M2995 400 c-3 -5 -1 -10 4 -10 6 0 11 5 11 10 0 6 -2 10 -4 10 -3 0
-8 -4 -11 -10z"/>
<path d="M3064 426 c-11 -17 -13 -30 -6 -42 6 -11 11 -13 16 -5 4 6 2 11 -3
11 -6 0 -11 5 -11 11 0 6 7 8 16 5 13 -5 14 -4 6 7 -9 10 -8 17 0 25 7 7 9 12
5 12 -3 0 -14 -11 -23 -24z"/>
<path d="M1413 535 c0 -8 4 -12 9 -9 5 3 6 10 3 15 -9 13 -12 11 -12 -6z"/>
<path d="M2115 541 c6 -11 4 -13 -8 -8 -23 9 -21 0 2 -13 15 -7 19 -7 17 5 -1
8 -6 18 -11 22 -4 5 -5 2 0 -6z"/>
<path d="M2310 540 c0 -5 5 -10 10 -10 6 0 10 5 10 10 0 6 -4 10 -10 10 -5 0
-10 -4 -10 -10z"/>
<path d="M2485 542 c15 -11 15 -42 -1 -42 -8 0 -14 -5 -14 -10 0 -7 6 -7 20 0
12 7 17 16 13 28 -5 14 -3 15 8 5 7 -7 17 -13 22 -13 5 0 -2 9 -16 20 -14 11
-29 20 -34 20 -4 0 -3 -4 2 -8z"/>
<path d="M2569 537 c-14 -11 -14 -14 3 -31 10 -11 18 -14 18 -8 0 6 -5 14 -11
18 -8 4 -7 9 2 15 7 4 11 10 9 13 -3 2 -12 -1 -21 -7z"/>
<path d="M1635 529 c-4 -6 -5 -12 -2 -15 2 -3 7 2 10 11 7 17 1 20 -8 4z"/>
<path d="M2014 529 c-3 -6 -2 -15 3 -20 5 -5 9 -1 9 11 0 23 -2 24 -12 9z"/>
<path d="M2195 530 c-4 -6 -10 -8 -15 -5 -5 3 -11 1 -14 -4 -8 -12 14 -8 39 7
11 6 15 12 8 12 -6 0 -15 -5 -18 -10z"/>
<path d="M2270 536 c0 -2 7 -9 15 -16 9 -7 15 -8 15 -2 0 5 -7 12 -15 16 -8 3
-15 4 -15 2z"/>
<path d="M2361 524 c0 -11 3 -14 6 -6 3 7 2 16 -1 19 -3 4 -6 -2 -5 -13z"/>
<path d="M2390 531 c0 -5 7 -12 16 -15 14 -5 15 -4 4 9 -14 17 -20 19 -20 6z"/>
<path d="M2602 520 c0 -14 2 -19 5 -12 2 6 2 18 0 25 -3 6 -5 1 -5 -13z"/>
<path d="M1470 526 c0 -2 7 -7 16 -10 8 -3 12 -2 9 4 -6 10 -25 14 -25 6z"/>
<path d="M1826 522 c-3 -5 1 -9 9 -9 8 0 15 4 15 9 0 4 -4 8 -9 8 -6 0 -12 -4
-15 -8z"/>
<path d="M2460 520 c-9 -6 -10 -10 -3 -10 6 0 15 5 18 10 8 12 4 12 -15 0z"/>
<path d="M2238 513 c7 -3 16 -2 19 1 4 3 -2 6 -13 5 -11 0 -14 -3 -6 -6z"/>
<path d="M1334 498 c-4 -7 -4 -10 1 -6 4 4 15 2 24 -5 14 -11 14 -10 2 6 -16
20 -18 21 -27 5z"/>
<path d="M1414 498 c-4 -7 -4 -10 1 -6 4 4 15 2 24 -5 14 -11 14 -10 2 6 -16
20 -18 21 -27 5z"/>
<path d="M1922 483 c25 -27 39 -32 15 -5 -10 10 -15 21 -12 24 3 2 -2 5 -10 5
-12 0 -10 -6 7 -24z"/>
<path d="M1940 505 c0 -2 6 -8 13 -14 10 -8 14 -7 14 2 0 8 -6 14 -14 14 -7 0
-13 -1 -13 -2z"/>
<path d="M2310 500 c0 -5 5 -10 10 -10 6 0 10 5 10 10 0 6 -4 10 -10 10 -5 0
-10 -4 -10 -10z"/>
<path d="M2547 503 c-4 -3 -7 -15 -7 -25 0 -10 -6 -17 -12 -15 -8 1 -13 -8
-13 -23 0 -15 5 -24 13 -22 6 1 12 -3 12 -9 0 -7 -10 -9 -27 -5 -23 5 -25 4
-10 -5 22 -13 51 -4 44 14 -2 6 -10 11 -16 10 -6 -2 -11 6 -11 17 0 11 5 19
11 18 7 -2 15 9 20 25 8 28 7 32 -4 20z"/>
<path d="M1777 493 c-10 -9 -9 -23 1 -23 5 0 9 7 9 15 0 17 -1 18 -10 8z"/>
<path d="M1823 485 c17 -19 17 -19 35 0 16 18 16 18 0 6 -15 -11 -21 -11 -35
0 -17 12 -17 12 0 -6z"/>
<path d="M2060 493 c0 -6 -15 -9 -34 -8 -24 3 -39 -2 -48 -13 -11 -15 -11 -15
2 -5 8 6 30 10 48 8 31 -2 51 9 38 22 -3 4 -6 2 -6 -4z"/>
<path d="M2202 480 c7 -10 14 -18 15 -16 6 6 -9 36 -18 36 -5 0 -4 -9 3 -20z"/>
<path d="M2290 485 c0 -8 4 -15 10 -15 5 0 7 7 4 15 -4 8 -8 15 -10 15 -2 0
-4 -7 -4 -15z"/>
<path d="M2346 485 c-11 -8 -15 -15 -9 -15 6 0 16 7 23 15 16 19 11 19 -14 0z"/>
<path d="M2384 485 c-10 -8 -15 -15 -10 -15 6 0 1 -7 -10 -15 -17 -14 -17 -16
-3 -27 9 -7 15 -21 13 -30 -1 -10 3 -21 8 -25 7 -4 8 -1 3 7 -6 10 -4 12 8 7
10 -3 17 -2 17 3 0 6 -7 10 -16 10 -8 0 -13 4 -9 9 3 6 -3 15 -12 20 -17 11
-17 11 0 22 9 5 15 14 12 20 -4 5 1 9 9 9 9 0 16 5 16 10 0 13 -3 13 -26 -5z"/>
<path d="M2436 485 c-3 -8 -1 -15 4 -15 6 0 10 7 10 15 0 8 -2 15 -4 15 -2 0
-6 -7 -10 -15z"/>
<path d="M2501 480 c-12 -11 -27 -18 -32 -15 -4 3 -13 -5 -19 -17 -9 -19 -9
-21 2 -8 7 8 20 16 28 18 8 2 24 12 35 23 25 25 17 24 -14 -1z"/>
<path d="M2622 493 c-6 -2 -9 -9 -6 -15 4 -6 -2 -8 -17 -4 -13 3 -18 3 -11 0
6 -3 9 -10 6 -16 -4 -6 1 -6 14 1 15 8 42 45 29 40 -1 0 -8 -3 -15 -6z"/>
<path d="M2676 485 c-3 -8 -1 -15 4 -15 6 0 10 7 10 15 0 8 -2 15 -4 15 -2 0
-6 -7 -10 -15z"/>
<path d="M1475 481 c-3 -5 -2 -12 3 -15 5 -3 9 1 9 9 0 17 -3 19 -12 6z"/>
<path d="M1880 486 c0 -2 8 -10 18 -17 15 -13 16 -12 3 4 -13 16 -21 21 -21
13z"/>
<path d="M2156 467 c3 -10 9 -15 12 -12 3 3 0 11 -7 18 -10 9 -11 8 -5 -6z"/>
<path d="M2649 463 c7 -13 8 -23 2 -23 -5 0 -12 6 -14 13 -4 9 -6 9 -6 0 -1
-18 19 -27 32 -14 8 8 6 16 -7 29 -18 16 -18 16 -7 -5z"/>
<path d="M2115 460 c6 -10 4 -12 -8 -7 -21 8 -22 3 -3 -12 10 -9 15 -8 19 3 4
9 1 18 -5 22 -7 5 -8 2 -3 -6z"/>
<path d="M2245 460 c-16 -7 -17 -9 -3 -9 9 -1 20 4 23 9 7 11 7 11 -20 0z"/>
<path d="M2400 455 c-10 -12 -10 -18 0 -30 15 -18 30 -11 30 15 0 26 -15 33
-30 15z m20 -17 c0 -16 -3 -19 -11 -11 -6 6 -8 16 -5 22 11 17 16 13 16 -11z"/>
<path d="M2275 450 c-8 -13 3 -30 18 -30 7 0 6 4 -3 10 -13 9 -13 11 0 20 9 6
10 10 3 10 -6 0 -15 -4 -18 -10z"/>
<path d="M2315 450 c-8 -13 3 -30 18 -30 7 0 6 4 -3 10 -13 9 -13 11 0 20 9 6
10 10 3 10 -6 0 -15 -4 -18 -10z"/>
<path d="M2570 451 c0 -7 -4 -9 -10 -6 -5 3 -10 2 -10 -3 0 -5 12 -9 26 -9 14
0 22 2 18 6 -5 3 -12 10 -16 15 -5 5 -8 4 -8 -3z"/>
<path d="M1176 442 c-3 -5 1 -9 9 -9 8 0 12 4 9 9 -3 4 -7 8 -9 8 -2 0 -6 -4
-9 -8z"/>
<path d="M1590 441 c0 -6 4 -13 10 -16 6 -3 7 1 4 9 -7 18 -14 21 -14 7z"/>
<path d="M1736 438 c3 -4 11 -5 19 -1 21 7 19 12 -4 10 -11 0 -18 -5 -15 -9z"/>
<path d="M2206 442 c-3 -5 1 -9 9 -9 8 0 12 4 9 9 -3 4 -7 8 -9 8 -2 0 -6 -4
-9 -8z"/>
<path d="M2481 433 c-5 -10 -13 -18 -18 -18 -4 0 -8 -9 -8 -20 1 -15 7 -19 24
-17 23 2 23 1 7 -23 -9 -13 -16 -28 -16 -32 0 -4 9 5 19 21 22 33 18 50 -8 41
-12 -3 -17 1 -18 15 -1 11 2 18 7 15 5 -3 14 4 20 15 13 24 5 27 -9 3z"/>
<path d="M1375 420 c-3 -5 -1 -10 4 -10 6 0 11 5 11 10 0 6 -2 10 -4 10 -3 0
-8 -4 -11 -10z"/>
<path d="M1665 420 c-3 -6 1 -7 9 -4 18 7 21 14 7 14 -6 0 -13 -4 -16 -10z"/>
<path d="M1877 408 c19 -21 31 -25 14 -5 -6 8 -9 16 -6 19 3 2 -2 5 -10 5 -13
0 -13 -3 2 -19z"/>
<path d="M1904 422 c4 -3 14 -7 22 -8 9 -1 13 0 10 4 -4 3 -14 7 -22 8 -9 1
-13 0 -10 -4z"/>
<path d="M1960 415 c-7 -9 -11 -17 -9 -20 3 -2 10 5 17 15 14 24 10 26 -8 5z"/>
<path d="M2150 420 c0 -5 5 -10 10 -10 6 0 10 5 10 10 0 6 -4 10 -10 10 -5 0
-10 -4 -10 -10z"/>
<path d="M2240 426 c0 -2 7 -7 16 -10 8 -3 12 -2 9 4 -6 10 -25 14 -25 6z"/>
<path d="M2626 405 c9 -14 20 -22 25 -19 13 7 68 -36 63 -50 -2 -6 5 -22 16
-34 12 -12 16 -22 9 -22 -7 0 -10 -3 -6 -6 3 -3 11 -3 17 1 8 5 6 12 -5 25
-15 17 -15 19 2 29 10 6 13 11 8 11 -6 0 -17 -6 -24 -12 -11 -11 -12 -9 -7 7
4 15 -2 24 -24 37 -17 9 -30 24 -30 33 0 21 17 19 23 -2 4 -16 5 -16 6 -1 2
28 -21 32 -41 7 -14 -17 -18 -19 -14 -6 3 11 2 16 -4 12 -6 -3 -10 -1 -10 4 0
6 -5 11 -10 11 -6 0 -3 -11 6 -25z"/>
<path d="M1475 411 c-3 -5 -2 -12 3 -15 5 -3 9 1 9 9 0 17 -3 19 -12 6z"/>
<path d="M1733 405 c0 -8 4 -15 9 -15 4 0 8 4 8 9 0 6 -4 12 -8 15 -5 3 -9 -1
-9 -9z"/>
<path d="M2013 398 c0 -13 1 -17 4 -10 3 6 10 9 16 5 7 -4 6 1 -2 10 -17 21
-17 21 -18 -5z"/>
<path d="M2570 407 c0 -9 -4 -17 -10 -17 -5 0 -10 -4 -10 -10 0 -5 4 -10 9
-10 12 0 25 39 17 47 -3 4 -6 -1 -6 -10z"/>
<path d="M2594 401 c0 -11 3 -18 7 -15 4 2 9 -2 12 -8 2 -7 7 -11 10 -8 3 3
-2 16 -12 28 -16 21 -17 22 -17 3z"/>
<path d="M1247 399 c7 -7 15 -10 18 -7 3 3 -2 9 -12 12 -14 6 -15 5 -6 -5z"/>
<path d="M1330 399 c0 -5 5 -7 10 -4 6 3 10 8 10 11 0 2 -4 4 -10 4 -5 0 -10
-5 -10 -11z"/>
<path d="M2050 402 c0 -5 7 -9 15 -9 8 0 12 4 9 9 -3 4 -9 8 -15 8 -5 0 -9 -4
-9 -8z"/>
<path d="M2177 396 c-4 -11 -1 -13 10 -9 12 5 14 3 8 -7 -5 -9 -4 -11 4 -6 9
6 9 11 0 22 -14 17 -16 17 -22 0z"/>
<path d="M2290 395 c0 -8 2 -15 4 -15 2 0 6 7 10 15 3 8 1 15 -4 15 -6 0 -10
-7 -10 -15z"/>
<path d="M2335 400 c3 -5 8 -10 11 -10 2 0 4 5 4 10 0 6 -5 10 -11 10 -5 0 -7
-4 -4 -10z"/>
<path d="M2431 394 c0 -11 3 -14 6 -6 3 7 2 16 -1 19 -3 4 -6 -2 -5 -13z"/>
<path d="M2720 400 c-13 -8 -13 -11 -1 -22 8 -8 11 -8 7 -1 -3 6 0 13 6 16 7
2 11 7 8 10 -3 3 -12 2 -20 -3z"/>
<path d="M1286 378 c3 -5 10 -6 15 -3 13 9 11 12 -6 12 -8 0 -12 -4 -9 -9z"/>
<path d="M1666 378 c3 -5 10 -6 15 -3 13 9 11 12 -6 12 -8 0 -12 -4 -9 -9z"/>
<path d="M2310 380 c0 -5 5 -10 10 -10 6 0 10 5 10 10 0 6 -4 10 -10 10 -5 0
-10 -4 -10 -10z"/>
<path d="M2743 375 c-3 -9 -3 -19 1 -22 3 -4 6 1 6 11 0 9 5 14 10 11 6 -4 8
-11 5 -16 -4 -5 -1 -9 4 -9 13 0 13 3 5 24 -8 20 -23 21 -31 1z"/>
<path d="M1775 370 c-4 -6 -11 -7 -17 -4 -7 4 -8 2 -4 -5 6 -9 11 -9 22 0 14
11 18 19 10 19 -3 0 -8 -5 -11 -10z"/>
<path d="M1855 369 c-4 -6 -5 -12 -2 -15 2 -3 7 2 10 11 7 17 1 20 -8 4z"/>
<path d="M1903 362 c10 -10 14 -22 10 -27 -5 -4 -2 -5 5 -1 11 6 10 12 -4 27
-9 10 -19 19 -22 19 -3 0 2 -8 11 -18z"/>
<path d="M1930 376 c0 -2 8 -10 18 -17 15 -13 16 -12 3 4 -13 16 -21 21 -21
13z"/>
<path d="M2039 378 c-5 -13 -5 -60 0 -63 4 -2 7 12 7 31 0 29 -3 42 -7 32z"/>
<path d="M2341 364 c0 -11 3 -14 6 -6 3 7 2 16 -1 19 -3 4 -6 -2 -5 -13z"/>
<path d="M1440 360 c-9 -6 -10 -10 -3 -10 6 0 15 5 18 10 8 12 4 12 -15 0z"/>
<path d="M1479 353 c-13 -16 -12 -17 4 -4 16 13 21 21 13 21 -2 0 -10 -8 -17
-17z"/>
<path d="M2160 361 c0 -5 7 -12 16 -15 14 -5 15 -4 4 9 -14 17 -20 19 -20 6z"/>
<path d="M2205 360 c-3 -6 1 -7 9 -4 18 7 21 14 7 14 -6 0 -13 -4 -16 -10z"/>
<path d="M2280 355 c-11 -13 -10 -14 4 -9 9 3 16 10 16 15 0 13 -6 11 -20 -6z"/>
<path d="M2361 354 c0 -11 3 -14 6 -6 3 7 2 16 -1 19 -3 4 -6 -2 -5 -13z"/>
<path d="M2411 365 c4 -3 19 -8 35 -11 16 -3 26 -2 23 1 -4 3 -19 8 -35 11
-16 3 -26 2 -23 -1z"/>
<path d="M2515 360 c-8 -13 4 -32 16 -25 5 4 9 0 9 -7 0 -8 7 -23 15 -34 13
-17 13 -15 0 16 -7 19 -19 34 -25 33 -14 -4 -13 14 3 20 9 4 9 6 0 6 -6 1 -15
-3 -18 -9z"/>
<path d="M2580 360 c0 -5 5 -10 10 -10 6 0 10 5 10 10 0 6 -4 10 -10 10 -5 0
-10 -4 -10 -10z"/>
<path d="M2656 358 c5 -8 2 -9 -9 -5 -10 3 -17 2 -17 -4 0 -14 32 -7 38 9 2 6
-1 12 -8 12 -6 0 -8 -5 -4 -12z"/>
<path d="M1870 356 c0 -2 8 -10 18 -17 15 -13 16 -12 3 4 -13 16 -21 21 -21
13z"/>
<path d="M2390 350 c0 -5 6 -10 13 -10 7 0 13 -9 14 -19 1 -14 -4 -19 -17 -16
-11 2 -23 -1 -26 -7 -4 -6 -3 -8 3 -5 6 4 13 0 17 -8 3 -8 11 -15 18 -14 10 0
10 2 1 6 -17 6 -17 24 -1 20 20 -4 17 43 -3 54 -13 6 -19 6 -19 -1z"/>
<path d="M2556 347 c3 -10 9 -15 12 -12 3 3 0 11 -7 18 -10 9 -11 8 -5 -6z"/>
<path d="M2310 340 c0 -5 5 -10 10 -10 6 0 10 5 10 10 0 6 -4 10 -10 10 -5 0
-10 -4 -10 -10z"/>
<path d="M2675 339 c-4 -6 -4 -13 -1 -16 3 -4 6 -1 6 6 0 7 5 9 10 6 6 -3 10
-1 10 4 0 14 -17 14 -25 0z"/>
<path d="M1637 330 c7 -8 20 -15 29 -16 9 -1 13 1 9 4 -4 4 -10 7 -13 7 -4 0
-14 4 -22 9 -12 7 -13 6 -3 -4z"/>
<path d="M1929 323 c-13 -16 -12 -17 4 -4 9 7 17 15 17 17 0 8 -8 3 -21 -13z"/>
<path d="M1979 328 c7 -9 9 -23 5 -30 -6 -10 -4 -11 7 0 11 10 10 15 -6 30
-17 15 -18 15 -6 0z"/>
<path d="M2195 329 c-4 -6 -5 -12 -2 -15 2 -3 7 2 10 11 7 17 1 20 -8 4z"/>
<path d="M2441 324 c0 -11 3 -14 6 -6 3 7 2 16 -1 19 -3 4 -6 -2 -5 -13z"/>
<path d="M2584 326 c-16 -13 -17 -17 -5 -28 12 -11 13 -10 7 6 -5 14 -2 17 9
12 9 -3 14 -2 10 3 -3 5 1 12 7 14 7 3 8 6 2 6 -5 1 -19 -5 -30 -13z"/>
<path d="M1430 319 c0 -5 5 -7 10 -4 6 3 10 8 10 11 0 2 -4 4 -10 4 -5 0 -10
-5 -10 -11z"/>
<path d="M1475 320 c-3 -5 -1 -10 4 -10 6 0 11 5 11 10 0 6 -2 10 -4 10 -3 0
-8 -4 -11 -10z"/>
<path d="M2066 318 c3 -5 10 -6 15 -3 13 9 11 12 -6 12 -8 0 -12 -4 -9 -9z"/>
<path d="M2228 323 c6 -3 9 -10 5 -16 -5 -8 -2 -8 9 0 8 7 18 10 21 6 4 -3 7
-2 7 4 0 6 -12 10 -27 10 -16 0 -22 -2 -15 -4z"/>
<path d="M2285 320 c-3 -5 -1 -10 4 -10 6 0 11 5 11 10 0 6 -2 10 -4 10 -3 0
-8 -4 -11 -10z"/>
<path d="M2340 325 c0 -8 29 -12 39 -5 9 5 4 8 -13 8 -14 0 -26 -2 -26 -3z"/>
<path d="M2491 327 c2 -1 13 -9 24 -17 19 -14 19 -14 6 3 -7 9 -18 17 -24 17
-6 0 -8 -1 -6 -3z"/>
<path d="M2650 321 c0 -5 -7 -11 -15 -13 -13 -2 -13 -5 2 -14 15 -9 18 -7 19
12 1 13 0 24 -2 24 -2 0 -4 -4 -4 -9z"/>
<path d="M1869 303 c-13 -16 -12 -17 4 -4 16 13 21 21 13 21 -2 0 -10 -8 -17
-17z"/>
<path d="M1951 307 c-8 -10 -7 -14 2 -14 8 0 14 6 14 14 0 7 -1 13 -2 13 -2 0
-8 -6 -14 -13z"/>
<path d="M2690 311 c0 -5 7 -15 17 -22 15 -13 15 -12 4 9 -12 23 -21 28 -21
13z"/>
<path d="M1270 299 c0 -5 5 -7 10 -4 6 3 10 8 10 11 0 2 -4 4 -10 4 -5 0 -10
-5 -10 -11z"/>
<path d="M1375 299 c-3 -4 2 -6 10 -5 21 3 28 13 10 13 -9 0 -18 -4 -20 -8z"/>
<path d="M1750 298 c0 -4 4 -8 9 -8 6 0 12 4 15 8 3 5 -1 9 -9 9 -8 0 -15 -4
-15 -9z"/>
<path d="M2310 300 c0 -5 5 -10 10 -10 6 0 10 5 10 10 0 6 -4 10 -10 10 -5 0
-10 -4 -10 -10z"/>
<path d="M2453 294 c-3 -8 -8 -12 -12 -10 -4 3 -8 -5 -8 -17 -2 -20 -1 -20 15
3 9 14 25 26 35 28 15 3 16 0 5 -17 -6 -11 -17 -19 -22 -18 -17 3 -13 -46 4
-50 9 -3 11 -1 5 4 -14 11 -19 47 -6 38 6 -3 14 1 17 9 3 9 10 14 14 11 5 -3
7 3 6 12 -3 22 -45 27 -53 7z"/>
<path d="M2675 281 c5 -30 4 -33 -10 -21 -10 8 -15 9 -15 1 0 -6 5 -11 11 -11
5 0 7 -5 3 -12 -4 -7 -3 -8 4 -4 19 11 14 -5 -5 -21 -16 -13 -16 -13 5 -3 13
6 21 17 19 23 -2 7 -1 19 3 27 5 9 2 23 -6 35 -14 19 -15 18 -9 -14z"/>
<path d="M1886 285 c-11 -8 -15 -15 -9 -15 6 0 16 7 23 15 16 19 11 19 -14 0z"/>
<path d="M2150 296 c0 -2 8 -10 18 -17 15 -13 16 -12 3 4 -13 16 -21 21 -21
13z"/>
<path d="M2266 283 c-6 -14 -5 -15 5 -6 7 7 10 15 7 18 -3 3 -9 -2 -12 -12z"/>
<path d="M2592 284 c-7 -8 -8 -14 -3 -14 10 0 25 19 20 25 -2 1 -10 -3 -17
-11z"/>
<path d="M1696 281 c-3 -4 6 -7 19 -7 14 0 22 2 19 5 -8 8 -34 10 -38 2z"/>
<path d="M2530 283 c5 -2 10 -9 10 -14 0 -6 -4 -8 -8 -5 -4 2 -19 -5 -32 -15
l-25 -20 25 12 c14 8 30 13 35 14 15 0 12 28 -3 31 -7 1 -8 0 -2 -3z"/>
<path d="M2623 283 c3 -5 -7 -17 -24 -27 -16 -9 -29 -21 -29 -26 0 -17 18 -20
30 -5 7 8 9 15 5 15 -4 0 3 8 16 18 17 15 19 21 9 27 -8 5 -11 4 -7 -2z m-23
-47 c0 -3 -4 -8 -10 -11 -5 -3 -10 -1 -10 4 0 6 5 11 10 11 6 0 10 -2 10 -4z"/>
<path d="M2863 275 c6 -7 15 -11 20 -8 13 8 7 19 -13 20 -16 1 -17 -1 -7 -12z"/>
<path d="M2197 269 c7 -7 15 -10 18 -7 3 3 -2 9 -12 12 -14 6 -15 5 -6 -5z"/>
<path d="M2235 271 c-6 -11 13 -26 22 -17 4 3 1 6 -6 6 -7 0 -9 5 -6 10 3 6 4
10 1 10 -3 0 -7 -4 -11 -9z"/>
<path d="M2375 270 c6 -10 4 -12 -8 -7 -10 3 -17 2 -17 -3 0 -13 27 -13 35 -1
3 5 0 13 -6 17 -8 5 -9 3 -4 -6z"/>
<path d="M1280 260 c-12 -7 -10 -9 7 -7 12 0 19 5 17 9 -6 10 -6 10 -24 -2z"/>
<path d="M1410 259 c0 -5 5 -7 10 -4 6 3 10 8 10 11 0 2 -4 4 -10 4 -5 0 -10
-5 -10 -11z"/>
<path d="M1490 259 c0 -5 5 -7 10 -4 6 3 10 8 10 11 0 2 -4 4 -10 4 -5 0 -10
-5 -10 -11z"/>
<path d="M2276 253 c-6 -14 -5 -15 5 -6 7 7 10 15 7 18 -3 3 -9 -2 -12 -12z"/>
<path d="M2556 253 c-6 -14 -5 -15 5 -6 7 7 10 15 7 18 -3 3 -9 -2 -12 -12z"/>
<path d="M1770 256 c0 -2 8 -10 18 -17 15 -13 16 -12 3 4 -13 16 -21 21 -21
13z"/>
<path d="M1942 244 c10 -10 20 -16 22 -13 3 3 -5 11 -17 18 -21 13 -21 12 -5
-5z"/>
<path d="M2331 244 c0 -11 3 -14 6 -6 3 7 2 16 -1 19 -3 4 -6 -2 -5 -13z"/>
<path d="M1334 236 c1 -8 5 -18 8 -22 4 -3 5 1 4 10 -1 8 -5 18 -8 22 -4 3 -5
-1 -4 -10z"/>
<path d="M2003 233 c-10 -10 -13 -14 -6 -10 6 5 16 6 21 3 5 -3 9 1 9 9 0 19
-1 19 -24 -2z"/>
<path d="M2199 233 c-13 -17 -13 -17 6 -3 11 8 22 16 24 17 2 2 0 3 -6 3 -6 0
-17 -8 -24 -17z"/>
<path d="M2305 239 c-4 -6 -5 -12 -2 -15 2 -3 7 2 10 11 7 17 1 20 -8 4z"/>
<path d="M2390 240 c0 -5 7 -7 15 -4 8 4 15 8 15 10 0 2 -7 4 -15 4 -8 0 -15
-4 -15 -10z"/>
<path d="M2632 245 c5 -5 -1 -15 -12 -22 -19 -14 -19 -39 1 -28 5 4 9 2 9 -3
0 -5 12 -14 26 -21 21 -9 24 -14 14 -26 -16 -19 -3 -40 15 -25 8 7 19 9 24 5
7 -4 8 1 4 12 -6 16 -5 16 10 4 15 -12 17 -12 11 3 -8 21 -13 20 -41 -6 -13
-12 -23 -16 -23 -10 0 6 5 14 12 18 7 5 -2 19 -28 41 -28 23 -34 33 -21 33 20
0 23 16 5 26 -7 4 -10 4 -6 -1z"/>
<path d="M2158 233 c7 -3 16 -2 19 1 4 3 -2 6 -13 5 -11 0 -14 -3 -6 -6z"/>
<path d="M2506 227 c-16 -12 -16 -14 4 -35 25 -26 36 -23 43 14 2 14 1 22 -3
17 -5 -4 -10 -16 -12 -27 -3 -17 -5 -16 -23 5 -18 20 -18 22 -2 16 10 -4 16
-3 12 2 -3 5 1 12 7 14 7 3 8 6 2 6 -5 1 -18 -5 -28 -12z"/>
<path d="M1706 218 c3 -4 9 -8 15 -8 5 0 9 4 9 8 0 5 -7 9 -15 9 -8 0 -12 -4
-9 -9z"/>
<path d="M2238 223 c7 -3 16 -2 19 1 4 3 -2 6 -13 5 -11 0 -14 -3 -6 -6z"/>
<path d="M2275 220 c3 -5 8 -10 11 -10 2 0 4 5 4 10 0 6 -5 10 -11 10 -5 0 -7
-4 -4 -10z"/>
<path d="M2350 220 c0 -5 7 -7 15 -4 8 4 15 8 15 10 0 2 -7 4 -15 4 -8 0 -15
-4 -15 -10z"/>
<path d="M2695 209 c-27 -19 -28 -20 -5 -13 22 6 23 5 11 -10 -9 -10 -10 -16
-2 -16 6 0 11 4 11 9 0 5 8 12 18 14 16 4 16 5 -1 6 -10 0 -15 6 -12 11 4 6
11 8 16 5 5 -4 9 -1 9 4 0 15 -10 13 -45 -10z"/>
<path d="M1675 211 c-3 -5 -2 -12 3 -15 5 -3 9 1 9 9 0 17 -3 19 -12 6z"/>
<path d="M2053 205 c0 -7 6 -11 14 -8 7 3 13 6 13 8 0 2 -6 5 -13 8 -8 3 -14
-1 -14 -8z"/>
<path d="M2217 209 c7 -7 15 -10 18 -7 3 3 -2 9 -12 12 -14 6 -15 5 -6 -5z"/>
<path d="M2326 205 c-3 -8 -1 -15 4 -15 6 0 10 7 10 15 0 8 -2 15 -4 15 -2 0
-6 -7 -10 -15z"/>
<path d="M2753 203 c2 -10 8 -26 12 -35 4 -11 3 -18 -4 -18 -6 0 -11 7 -11 15
0 8 -5 15 -10 15 -7 0 -7 -6 0 -20 12 -22 12 -22 34 -14 14 5 14 8 0 29 -9 13
-13 29 -9 35 3 5 1 10 -6 10 -6 0 -9 -8 -6 -17z"/>
<path d="M1559 193 c-13 -16 -12 -17 4 -4 16 13 21 21 13 21 -2 0 -10 -8 -17
-17z"/>
<path d="M2181 196 c-9 -11 -9 -16 0 -22 8 -5 9 -3 4 6 -6 10 -4 12 8 7 11 -4
14 -2 10 9 -6 17 -8 17 -22 0z"/>
<path d="M2268 192 c9 -10 19 -17 21 -16 6 5 -20 34 -30 34 -5 0 -1 -8 9 -18z"/>
<path d="M2370 196 c0 -24 14 -25 39 -5 13 10 20 19 15 19 -4 0 -16 -8 -27
-17 -19 -17 -20 -17 -14 0 4 9 2 17 -3 17 -6 0 -10 -6 -10 -14z"/>
<path d="M2566 197 c3 -10 9 -15 12 -12 3 3 0 11 -7 18 -10 9 -11 8 -5 -6z"/>
<path d="M2837 192 c-10 -10 -17 -23 -17 -28 0 -4 7 1 15 13 10 14 21 20 32
16 11 -4 14 -3 9 5 -10 17 -20 15 -39 -6z"/>
<path d="M2475 190 c3 -5 8 -10 11 -10 2 0 4 5 4 10 0 6 -5 10 -11 10 -5 0 -7
-4 -4 -10z"/>
<path d="M1394 182 c4 -3 14 -7 22 -8 9 -1 13 0 10 4 -4 3 -14 7 -22 8 -9 1
-13 0 -10 -4z"/>
<path d="M1826 182 c-3 -5 1 -9 9 -9 8 0 12 4 9 9 -3 4 -7 8 -9 8 -2 0 -6 -4
-9 -8z"/>
<path d="M1877 168 c19 -21 31 -25 14 -5 -6 8 -9 16 -6 19 3 2 -2 5 -10 5 -13
0 -13 -3 2 -19z"/>
<path d="M1906 180 c5 -8 9 -18 9 -22 0 -3 3 -9 7 -13 3 -4 5 0 4 9 -1 9 -8
22 -16 29 -10 10 -11 9 -4 -3z"/>
<path d="M2066 182 c-3 -5 1 -9 9 -9 8 0 12 4 9 9 -3 4 -7 8 -9 8 -2 0 -6 -4
-9 -8z"/>
<path d="M2150 183 c0 -6 8 -17 18 -24 16 -13 16 -13 2 6 -8 11 -16 22 -17 24
-2 2 -3 0 -3 -6z"/>
<path d="M2261 170 c14 -31 19 -36 19 -24 0 6 -7 19 -16 30 -14 18 -14 18 -3
-6z"/>
<path d="M2353 164 c0 -17 2 -22 7 -13 5 6 6 18 3 26 -8 19 -10 16 -10 -13z"/>
<path d="M2419 183 c-1 -4 -1 -11 0 -15 0 -5 -6 -8 -14 -8 -8 0 -15 -5 -15
-10 0 -7 7 -7 20 0 11 6 18 15 15 21 -4 5 3 9 15 9 12 0 18 -5 15 -10 -9 -15
21 -23 42 -11 15 9 13 10 -10 5 -20 -5 -27 -3 -25 7 2 8 -7 15 -19 17 -13 2
-24 0 -24 -5z"/>
<path d="M2594 182 c3 -6 3 -12 -1 -15 -5 -2 -2 -2 5 -1 6 2 12 -1 12 -6 0 -6
5 -10 10 -10 17 0 11 14 -11 28 -12 8 -18 9 -15 4z"/>
<path d="M1971 166 c-9 -10 -8 -15 2 -19 8 -3 13 3 13 14 0 23 0 23 -15 5z"/>
<path d="M1706 161 c-3 -4 6 -7 19 -7 14 0 22 2 19 5 -8 8 -34 10 -38 2z"/>
<path d="M2199 153 c-12 -16 -12 -17 2 -6 9 7 19 10 22 6 4 -3 7 -1 7 5 0 17
-16 15 -31 -5z"/>
<path d="M2307 153 c3 -7 9 -13 15 -13 5 0 7 4 4 9 -4 5 0 11 6 14 7 3 3 4 -8
4 -14 -1 -20 -6 -17 -14z"/>
<path d="M2552 163 c3 -15 -14 -63 -21 -59 -3 2 -14 -2 -24 -9 -17 -13 -17
-14 3 -20 12 -4 24 -4 27 -1 4 3 -1 6 -11 6 -9 0 -14 5 -11 10 4 6 10 8 15 5
5 -3 16 11 25 31 18 43 18 44 5 44 -5 0 -9 -3 -8 -7z"/>
<path d="M2507 148 c-13 -10 -14 -17 -6 -28 9 -12 10 -12 5 4 -5 14 -2 17 9
12 9 -3 14 -2 10 3 -3 5 1 12 7 14 7 3 8 6 2 6 -5 1 -18 -5 -27 -11z"/>
<path d="M1940 146 c0 -2 8 -10 18 -17 15 -13 16 -12 3 4 -13 16 -21 21 -21
13z"/>
<path d="M2037 133 c3 -7 0 -19 -6 -26 -8 -10 -7 -14 4 -14 8 0 11 5 8 10 -4
6 0 8 9 5 8 -4 15 0 15 8 0 7 -5 10 -10 7 -6 -4 -8 0 -5 9 4 8 1 15 -7 15 -7
0 -11 -6 -8 -14z"/>
<path d="M2430 140 c0 -5 5 -10 10 -10 6 0 10 5 10 10 0 6 -4 10 -10 10 -5 0
-10 -4 -10 -10z"/>
<path d="M2574 139 c-8 -14 11 -33 25 -25 6 4 11 11 11 16 0 13 -29 20 -36 9z
m21 -9 c3 -5 1 -10 -4 -10 -6 0 -11 5 -11 10 0 6 2 10 4 10 3 0 8 -4 11 -10z"/>
<path d="M1855 129 c-4 -6 -5 -12 -2 -15 2 -3 7 2 10 11 7 17 1 20 -8 4z"/>
<path d="M1899 127 c8 -9 16 -15 19 -12 3 3 12 -1 21 -8 14 -11 14 -10 2 6 -8
9 -16 15 -19 12 -3 -3 -12 1 -21 8 -14 11 -14 10 -2 -6z"/>
<path d="M2013 125 c0 -8 4 -12 9 -9 5 3 6 10 3 15 -9 13 -12 11 -12 -6z"/>
<path d="M2140 129 c0 -5 -6 -7 -12 -3 -7 4 -9 3 -5 -1 13 -15 36 -14 30 1 -6
17 -13 18 -13 3z"/>
<path d="M2227 127 c-3 -8 1 -14 9 -14 16 0 19 13 5 21 -5 3 -11 0 -14 -7z"/>
<path d="M2625 130 c-3 -6 1 -7 9 -4 18 7 21 14 7 14 -6 0 -13 -4 -16 -10z"/>
<path d="M2290 120 c0 -5 5 -10 10 -10 6 0 10 5 10 10 0 6 -4 10 -10 10 -5 0
-10 -4 -10 -10z"/>
<path d="M2330 120 c0 -5 5 -10 10 -10 6 0 10 5 10 10 0 6 -4 10 -10 10 -5 0
-10 -4 -10 -10z"/>
<path d="M2366 118 c3 -4 9 -8 15 -8 5 0 9 4 9 8 0 5 -7 9 -15 9 -8 0 -12 -4
-9 -9z"/>
<path d="M2405 120 c-3 -5 -1 -10 4 -10 6 0 11 5 11 10 0 6 -2 10 -4 10 -3 0
-8 -4 -11 -10z"/>
<path d="M2470 123 c14 -7 13 -24 -2 -20 -6 1 -14 -6 -16 -15 -2 -10 1 -18 7
-18 6 0 8 7 4 15 -3 10 0 15 8 13 8 -2 14 3 14 11 0 8 -6 15 -13 17 -7 1 -8 0
-2 -3z"/>
<path d="M1870 116 c0 -2 8 -10 18 -17 15 -13 16 -12 3 4 -13 16 -21 21 -21
13z"/>
<path d="M2435 109 c-4 -6 -5 -12 -2 -15 2 -3 7 2 10 11 7 17 1 20 -8 4z"/>
<path d="M1625 100 c-3 -6 1 -7 9 -4 18 7 21 14 7 14 -6 0 -13 -4 -16 -10z"/>
<path d="M1987 99 c7 -7 15 -10 18 -7 3 3 -2 9 -12 12 -14 6 -15 5 -6 -5z"/>
<path d="M2190 101 c0 -5 8 -15 18 -22 15 -12 16 -12 5 2 -7 9 -10 19 -6 22 3
4 1 7 -5 7 -7 0 -12 -4 -12 -9z"/>
<path d="M2556 93 c-6 -14 -5 -15 5 -6 7 7 10 15 7 18 -3 3 -9 -2 -12 -12z"/>
<path d="M2594 94 c-18 -15 -18 -15 2 -5 12 6 24 7 28 4 3 -3 6 -1 6 5 0 16
-12 15 -36 -4z"/>
<path d="M1809 83 c-13 -16 -12 -17 4 -4 16 13 21 21 13 21 -2 0 -10 -8 -17
-17z"/>
<path d="M1862 84 c10 -10 20 -16 22 -13 3 3 -5 11 -17 18 -21 13 -21 12 -5
-5z"/>
<path d="M2261 73 c-10 -26 -10 -27 4 -9 8 11 15 23 15 28 0 15 -7 8 -19 -19z"/>
<path d="M2307 87 c-3 -8 3 -13 17 -14 11 0 15 1 8 4 -6 3 -10 9 -6 14 3 5 1
9 -4 9 -6 0 -12 -6 -15 -13z"/>
<path d="M2353 74 c0 -17 2 -22 7 -13 5 6 6 18 3 26 -8 19 -10 16 -10 -13z"/>
<path d="M2390 90 c0 -5 7 -10 15 -10 8 0 14 -5 13 -12 -2 -6 5 -13 15 -14 12
-1 13 0 2 3 -8 2 -13 8 -10 13 3 5 -4 14 -15 20 -13 7 -20 7 -20 0z"/>
<path d="M1670 80 c0 -5 5 -10 11 -10 5 0 7 5 4 10 -3 6 -8 10 -11 10 -2 0 -4
-4 -4 -10z"/>
<path d="M1939 73 c-13 -17 -13 -17 6 -3 11 8 22 16 24 17 2 2 0 3 -6 3 -6 0
-17 -8 -24 -17z"/>
<path d="M2096 74 c-3 -7 2 -10 15 -7 22 6 26 20 4 20 -8 0 -16 -6 -19 -13z"/>
<path d="M1706 62 c-3 -5 1 -9 9 -9 8 0 12 4 9 9 -7 10 -11 10 -18 0z"/>
<path d="M2001 56 c-6 -7 -25 -12 -41 -11 -17 1 -35 -4 -42 -13 -11 -13 -11
-14 2 -7 20 13 73 13 83 0 6 -6 7 -4 4 6 -3 9 0 22 6 28 6 6 8 11 5 11 -3 0
-11 -6 -17 -14z"/>
<path d="M2268 49 c-15 -16 -15 -18 0 -24 9 -3 13 -3 9 1 -4 4 -2 13 5 21 17
20 5 22 -14 2z"/>
<path d="M2370 48 c-10 -21 -10 -21 3 -6 11 14 16 15 27 5 12 -10 12 -9 1 6
-17 22 -18 22 -31 -5z"/>
<path d="M2475 60 c-3 -6 1 -7 9 -4 18 7 21 14 7 14 -6 0 -13 -4 -16 -10z"/>
<path d="M1889 43 c-13 -16 -12 -17 4 -4 16 13 21 21 13 21 -2 0 -10 -8 -17
-17z"/>
<path d="M2158 53 c7 -3 16 -2 19 1 4 3 -2 6 -13 5 -11 0 -14 -3 -6 -6z"/>
<path d="M2082 38 c-15 -15 -15 -28 0 -28 6 0 8 3 5 7 -4 3 -2 12 4 20 14 16
7 17 -9 1z"/>
<path d="M2306 41 c9 -9 34 -9 34 -1 0 5 -9 8 -20 7 -10 -1 -17 -3 -14 -6z"/>
<path d="M2150 29 c0 -5 5 -7 10 -4 6 3 10 8 10 11 0 2 -4 4 -10 4 -5 0 -10
-5 -10 -11z"/>
<path d="M2186 18 c3 -4 11 -5 19 -1 21 7 19 12 -4 10 -11 0 -18 -5 -15 -9z"/>
</g>
</svg>
